<?xml version="1.0" encoding="UTF-8"?><svg id="Layer_2" xmlns="http://www.w3.org/2000/svg" viewBox="0 0 716.69 737.14"><defs><style>.cls-1{fill:#231f20;stroke-width:0px;}</style></defs><g id="Layer_1-2"><g id="Left-down"><path class="cls-1" d="M90.22,681.28c2.53,2,.99-.36.99-2.28l-.99,2.28Z"/><path class="cls-1" d="M91.22,679l.71-1.61c-.54.37-.7.95-.71,1.61Z"/><path class="cls-1" d="M95.85,663.66c1.58,3.98-2.2,7.75.8,10.59,2.64-3.29,2.77-9.05-.8-10.59Z"/><polygon class="cls-1" points="92.73 668.7 94.49 669.47 92.16 665.81 92.73 668.7"/><polygon class="cls-1" points="90.64 670.67 91.4 670.33 90.37 665.06 90.64 670.67"/><path class="cls-1" d="M99.3,651.71l-.12,3.7c-3.11,2.94-3-2.82-5.09-.86-.77,4.51,4.98,2.46,3.17,7.95,2.45-.04,1.55-9.02,5.11-7.47,2-4.53-2.16-.61-3.08-3.33Z"/><path class="cls-1" d="M126.35,431.03c.22-.13.32-.27.49-.4-.45.08-.79.21-.49.4Z"/><path class="cls-1" d="M142.78,371.78c.65-.67,1.15-1.39,1.57-2.11-.45.11-.89.29-1.3.59l-.27,1.52Z"/><path class="cls-1" d="M123.08,469.75c-.62.74-1.1,1.44-1.5,2.1.63-.31,1.18-.91,1.5-2.1Z"/><path class="cls-1" d="M313.32,140.82c.08.29.23.63.53,1.01.03,0,.08,0,.14-.01l-.22-1.19-.45.19Z"/><path class="cls-1" d="M163.61,305.3c.38-.91.71-1.82.84-2.71-.75,1.46-.94,2.24-.84,2.71Z"/><path class="cls-1" d="M118.07,491.1c.1-.32.17-.6.23-.88-.2.25-.43.6-.64,1.01l.39-.08s0-.02.01-.04Z"/><path class="cls-1" d="M131.34,389.15c.51-.71.94-1.37,1.13-1.98-.54.63-.87,1.3-1.13,1.98Z"/><path class="cls-1" d="M113.33,597.38c.53-.95.46-1.84.16-2.67-.68.54-.93,1.35-.16,2.67Z"/><path class="cls-1" d="M116.97,576.13s0,.09,0,.13c.47-.04.39-.12,0-.13Z"/><path class="cls-1" d="M119.97,562.69c.03.09.03.17.05.26.35-.09.43-.16-.05-.26Z"/><path class="cls-1" d="M113.49,594.7c1.8-1.48,6.61-1.11,1.86-4.35l-.78.32c1.44-1.14-.22-3.53-.09-5.13-.53.07-.96.18-1.37.33-.21.78-.55,1.8-1.19,3.35-1.44,1.71.79,3.42,1.56,5.48Z"/><path class="cls-1" d="M127.22,431.53c-.99-.07-.92,1.48,0,0h0Z"/><path class="cls-1" d="M125.88,450.71c.22-.57.45-1.14.64-1.74-.34.52-.67,1.04-.64,1.74Z"/><path class="cls-1" d="M107.64,519.08c.11-.1.17-.19.28-.28-.51-.22-.49.07-.28.28Z"/><path class="cls-1" d="M127,447.34c-.13.56-.31,1.09-.49,1.63.32-.46.59-.94.49-1.63Z"/><path class="cls-1" d="M115.15,499.03c.07-.09.17-.17.2-.25-.09.04-.16.14-.2.25Z"/><path class="cls-1" d="M569.82,42.03c-1.29.59-2.22-.74-3.53-.99-1.22,1.92.24,1.73,1.53,1.57,1.3-.15,2.42-.34.54,1.4,1.25-.14,2.19-.69,3.05-1.27l-2.13-3.09c-2.35,1.51,1.78.94.53,2.38Z"/><path class="cls-1" d="M330.64,134.35l-.64.16c1.29.87,1.32,1.45,3.55.61-.03-2.97-4.56-3.62-3.62-7.73-.33.62-1.15,1.17-2.06,1.53,2.4.65,2.74,3.15,2.78,5.44Z"/><path class="cls-1" d="M327.86,128.92c-.06,0-.11-.04-.19-.07-.32-.14-.62-.23-.91-.29-.39.3-.83.52-1.27.6.67.2,1.55.09,2.37-.24Z"/><path class="cls-1" d="M525.56,47.5c-.56,0-1.07,0-1.54,0,.85.47,1.27.37,1.54,0Z"/><path class="cls-1" d="M199.81,326.65c0,.73.09,1.49.19,2.11.25-1,.09-1.63-.19-2.11Z"/><path class="cls-1" d="M304.69,154.25c-.55.19-1.03.47-1.52.8-.21.27-.36.53-.62.85l2.14-1.65Z"/><path class="cls-1" d="M373.96,60.15c.82,3.85.67-.76,3.93-.11l1.02-2.87c-2.14.54-3.54,2.04-4.94,2.98Z"/><path class="cls-1" d="M571.58,42.97c-.01-.12-.02-.22-.01-.34-.05.03-.08.06-.15.1l.16.23Z"/><path class="cls-1" d="M435.09,29.03c.44.04.83.06,1.23.06-.29-.12-.68-.16-1.23-.06Z"/><path class="cls-1" d="M317.15,136.3l-6.24,5.5,2.41-.98c-.41-2.14,4.51-2.08,3.83-4.52Z"/><path class="cls-1" d="M341.07,78.91l-1.97-1.39c-2.21,4.54-6.29,6.98-10.11,9.45-3.76,2.53-7.17,5.23-7.8,10.03-3.38.09-5.04.88-5.94,1.86-.89,1-.95,2.25-.97,3.51-.05,2.52.11,5-5.94,5.48l.99.64c-1.59,1.23-3.19,2.47-4.79,3.72-1.56,1.29-3.12,2.59-4.69,3.89-3.15,2.59-6.32,5.2-9.49,7.81-1.61,1.28-3.14,2.66-4.67,4.03l-4.59,4.11-4.57,4.14c-1.5,1.4-3.07,2.74-4.48,4.21-11.61,11.48-22.3,23.6-29.94,36.63l-1.21-1.03c-8.08,9.04-15.33,18.64-22.27,28.38-3.37,4.93-6.69,9.89-9.96,14.86-3.09,5.08-6.18,10.15-9.26,15.21-11.98,20.47-22.61,41.5-33.36,62.65-.55,4.63,3.76,3.72,3.77,7.9-.83,1.43-2.22,4.87-4.01,4.07.38-3.34-1.96-2.43-2.2-3.74-2.14,4.87-6.86,10.3-6.6,15.6l3.9-2.62c.24,2.11-1.57,4.47-2.36,5.94-.9-1.16-4.42-.03-4.4-1.59.44,2.92.32,4.75-.14,6-.44,1.26-1.2,1.94-2.06,2.53-1.72,1.18-3.82,2.01-4.26,6.39,2.17,1.79,3.29,5.53,4,9.78.69,4.24,1.15,9.05,1.71,12.91l-2.58,2.87c1.72-4.46-3.7-1.3-1.36-6.77-3.2,4.1-2.7,9.22-5.12,13.32,1.57-.4,3.15.43,3.1,2.4-1.65,2.46-4.27,1.78-5.62,4.8l-.51-3.63c-2.63,1.39-.75,4.07-1.12,6.09-2.34-.12-4.37,4.4-6.44,2.76,1.4,5.19-.68,6.14-.34,11.29,3.8-3.97,2.41,2.15,4.36,2.2l.9-5.58c-3.88,6.99.42-2.55-3.39-3.23,2.87-2.93,4.35,6.84,5.78.79-.5,7.62-2.59,8.58-1.93,16.72.73-4.54,2.1,1.59,3.98-.36-1.66,5.5-1.72.94-4.62,1.88-.89,3.01-3.28,3.47-1.43,7.07-2.6,4.52-2.52-1.59-4.77.41-.97-1.29.81-4.46,1.87-7.42,1.07-2.96,1.32-5.75-2.9-6.39.75-2.57-1.29-6.69.09-10.32-2.1,2.85-6.25,6.6-5.73,11.18l4.45,1.66c-.88,3.04,1.98,4.64.92,6.68-.95-1.57-3.5-.09-3.88,2.46.86-.49,1-1.51,1.71-.99-1.04,4.6,1.86,6.18,1.08,11.77,2.53-4.04,4.17-4.53,7.39-8.01,2.84,2.09-.42,3.03-.78,5.55-.32-.49-.25-1.02-1.1-.51l.74,3.03c-3.05,5.04-4.4-2.08-7.32,1.97-3.65,2.33.23,4.73-1.99,6.69.34-.07.69-.15.94-.23-.21.52-.39.88-.57,1.13.08,0,.15,0,.23.02-.37,3.05-1.53,6.12.62,7.62-1.17,0-.42,2.64.05,3.8.25.95.8,2.59.72,4.16-.06,1.58-.73,3.08-2.99,3.77-.01-.07.03-.12.03-.19-1.44,3.51-3.42,6.03-4.5,4.89l-2.55,5.64-2.96-1.46c-.61,5.6,1.38,5.55,3.68,10.07-2.83,3.37-3.04,10.5-2.51,13.33-.23.39-.41,1.04-.51,2.15l1.8-1.94c-1.19,4.16.63,4.06-.03,6.83.43-.5.63-.54-.23.88-.17.46-.34.95-.61,1.53-.3-.22-.1-.83.21-1.41l-1.17.25c-4.14,2.56.67,5.6-1.35,8.91-.04-.37-.12-1,0-1.36-1.32,1.81-6.48,3.68-3.96,5.15-.45.39-.07,1.23.46,2.08l-.81,1.38c.28-.58.55-1.01.81-1.36.7,1.13,1.62,2.27.92,2.23l-1.73,5.04c-.68.88-.58,2.3-.38,3.47l-1.51.59c-.23,1.93-1.01,1.77-1.32,1.47-6.05,5.55.14,10.64-5.34,16.88,1.9,1.81,3.52-.9,4.75-.88,1.45,1.46,2.1,5.82,2.86,8.09-3.69,2.51-8.32,11.65-12.39,9.21-1.53,5.78,3.07-1.28,3.99,1.96l-.31.64c.92-1.92,2.74-3.19,4.65-3.98,2.45.04,2.1,5.33,1.1,6.76l-3.15-1.78c.09,5.62,5.37,5.51,8.07,9.52-2.16,4.01-4.74.95-7.93,1.26l-.03,4.67-2.53-.49c.1,3.06,2.33,4.2.55,8.06-1.81-3.39-3.54,5.63-5.96.96-1.29,2.09,3.49,3.68-.1,4.19,2.41,2.08,1.72-1.77,2.8-2.74,4.05-.18.93,5.3,1.43,8.2-2.05-.15-2.03-2.25-3.96.68,1.4.94,2.2,3.18,0,4.64,2.53.47-.16,3.71-.66,5.48.88-1.94,3.28-4.53,5.22-2.8.72,1.77.97,3.22-.03,6.75l1.64-2.26c3.14,3.82-3.63,4.69-3.23,9.19-1.2-2.08-.99-3.21-2.56-5.12.82,2.24,1.98,6.41,2.59,9.78l-4.35,2.94c1.77.78-.9,4.03,1.64,4.48-2.5,4.19-2.41-4.16-4.18-4.94-2.7,5.34,3.42,5.27-1.42,9.99l-2.05-2.22c-.49,1.77.23,5.62-1,5.64.85.15.67-.82.87-1.94,4.88,2.01,2.08,8.96,7.44,9.21l.78-2.43c.34,3.99,3.42,7.32,1.06,9.93-2.08,1.96-3.28-2.2-4.4-3.77-.96,3.53,5.25,3.92,4,8.12,1.24-2.11,3.03-1.35,4.14.24.77-2.42,2.67-7.41.31-6.89l-.66.81c-1.32-.46-1.59-1.9-2.15-2.69.6-3.38,2.65-1.16,3.78-1.66,1.83-5.48-5.16-1.38-4.08-6.51l1.13-.49c-.92-2.72-.42-6.58-3.52-7.84,3.78-1.65-.31-6.09,2.16-8.2,7.51.86-2.08,8.67,1.47,12.33,2-2.43,3.28,2.18,4.77,3.61l-1.71-9.11c1.13-.5,5.3-2.33,2.87-4.36l-.29.64c-.23-3.53-3.45-3.17-1.9-5.91.76-.33,1.78.78,2.25,1.1,1.17-2.57-1.28-2.55-1.63-4.48,1.16-2.58,2.8,1.9,4.04-.2-2.3-3.65,1.57-4.82,1.89-7.56-4.43.38-3.74-11.83-8.54-6.67l-1.66-7.05c2.57-1.62,5.07,5.59,8.95,4.45l-1.12,5.14c5.4.12-1.4-11.47,5.09-13.8.75-2.71-.11-2.18,3.51-6.89h-4.85c1.6-2.51,4.32-2.89,5.2-2.85,0-1.64.4-3.05.89-4.48.61.52,1.14,1.2,1.2,2.2,2.99-1.53,2.13-2.3.89-3.29-.96-1.33-.49-2.97-.11-4.65l1.44,1.87c-.19-1.11-.44-2.47-1.26-2.75.12-.7.15-1.39,0-2.08-.9.29-3.86.86-5.56,3.04,3.1-5.9,3.09-11.01,8.03-15.58,1.31.48,2.53,3.06,2.84,2.42,1.22-2.53-.55-5.92-2.62-6.1,0-.63.05-1.11.12-1.52,1.27-.27,2.64-.63,3.12-1.86.48-.2.96-.61,1.3-1.49-3.51-1.67-.57-6.4-2.01-7.87-.64,1.13-.92,2.61-1.12,4.14-2.01-2.67-4.42-5.21-2.08-6.45,1.5,4.5,4.75-3.43,4.5,2.81,5.59-3.21-2.89-2.93-.27-7.05l2.49-2.48c2.58,1.03.3,4.96,1.47,4.51l.1-2.07c1.56,2.44-1.35,9.72.67,15l3.48-9c-.37-6.22,1.29-12.76,2.48-19.17,1.19-6.41,2.17-12.62.39-18.29-.02.14-.02.29-.03.44-.22-.24-.7-.44-1.68-.82l.78-.29-1.55-2.45c3.01-1.63,4.57-5.67,7.45-8.71q-2.21,1.81-4.27,1.53c-2.56-1.11-3.61-1.74-1.78-4.8,1.9.44,1.34,2.47,3.46.41-1.25,1.02-2.3-.43-2.18-1.94,1.7-1.55,2.74-4.59,4.66-4.14.3.99-.53,1.52-.96,2.03.29.99,2.59-3.06,3.5-.1l.3-3.49c2.08-1.54,2.17,1.95,3.38,1.43.14-5.88-3.4-9.86-3.34-15.25.94.51,5.14,1.71,3.93,1.32,2.3-3.51-2.37-9.55-1.41-14.03,1.06,1,.09,2.49.31,3.99,2.74-6.47,4.87-12.45,7.36-18.2,2.55-5.72,5.34-11.26,9.26-16.83l-3.21-4.58,3.9-2.31c1.75-3.03,3.09-5.97,4.17-8.88,1.06-2.92,1.98-5.77,2.7-8.67,1.49-5.78,2.36-11.71,4.09-17.99,1.17-3.88,3.79-1.17,5.64-2.49,1.81-4.03,1.68-7.02,1.45-10.02-.22-2.99-.63-6.01.5-10.12.83,1.6,3.67,4.88,5.21,1.6-.94-1.11-2.66-2.3-1.06-4.12l.83,1.6c1.32-.58,1.73-1.52,2.12-2.78.38-1.26.73-2.83,2.01-4.64,1.49-3.52,2.23-7.25,2.36-11.11.06-1.93-.03-3.88-.26-5.84-.22-1.96-.52-3.91-.98-5.86,3.31-5.98,4.08,2.67,5.52,1.9-3.52,3.64-.69,3.33.28,4.91-.09-2.8.51-5.9,3.96-5.72,1.31-3.25,2.11-4.62,1.64-8.69.24,2.05-1.96,2.66-2.57.55,1.13-1.06,2.15-3.4,3.41-5.16,1.26-1.76,2.66-3,4.36-1.93,1.69-3.79,3.52-7.64,5.45-11.54,1.95-3.89,4.14-7.73,6.28-11.64,1.08-1.95,2.17-3.91,3.26-5.87,1.1-1.96,2.28-3.86,3.41-5.79,2.29-3.86,4.55-7.72,6.73-11.57-.1-1.8-.56-1.42-1.06-.86-.48.57-.97,1.33-1.18.24-.03-5.11,3-2.2,3.01-6.27l1.1,2.36c3.02-4.19,2.46-11.04,3.52-16.39,1.62,2.04,4.03-2.31,2.94,1.97,1.03-2.29,11.96,1.4,11.09-1.4l-10.16-3.45c-.77-.68,1.68-3.2.91-3.29,2.9-.66,6.35-1.48,7.17-2.71,2.56.89.03,3.64-1.14,5.3,3.46,2.69,6.11-4.08,7.79.6,1.8-3.98-2.19-.75-2.09-3.81.97-.86,1.89-1.75,2.89-2.58-.98.49-1.9,1.04-2.85,1.56.17-.84.16-1.65.13-2.42-.02-.76-.07-1.48,0-2.16.13-1.36.73-2.57,2.96-3.57l-.89-6.06c3.05,1.67,2.39-2.23,4.37-3.59l.94,2.46c1.67-2.49,2.8-3.1,4.98-3.79,1.38,3.14-2.22,1.71-.34,4.01.9-.69,1.83-1.35,2.77-2-1.57-1.16-1.51-3.74-3.9-2.6-1.03-4.6-2.39-7.78,2.6-13.7,4.76-.67.03,4.79,3.51,5.69,3.01-2.68,2.75-5.98,2.27-8.98-.48-3-1.31-5.79.37-7.46,4.91-3.71,2.33-5.44,6.1-10.27.24,1.5,1.36,1.05,2.79.39,1.42-.67,3.08-1.63,4.26-1.32l.16,3.33c.7-1.82,2.55-2.53,3.43-1.02-2.53-1.8,3.12-7.7,4.85-11.79l-2.41-1.26c.76-1.53,1.68-3.36,2.76-5.07,1.08-1.72,2.32-3.32,3.78-4.32,3.05-4.29.57-5.09,1.4-10,3.23.11,5,2.3,6.49,4.87-1.91.02-3.01,2.25-5.18,3.3-2.98,6.31-2.62,13.57-7.81,17.52,1.4,3.19,1.99,2.26,2.7.44.72-1.81,1.53-4.59,3.47-4.89.21.33.14.57.02.79.21-.19.4-.34.68-.43-.26.54-.58,1.16-.87,1.82-.27.68-.53,1.41-.69,2.15-.32,1.48-.27,3.01.71,4.34,1.04-1.63.35-3.23.04-4.63-.31-1.41-.21-2.6,2.46-3.34,1.21-3.75,6.81-2.29,8.6-3.48-.04-3.33-3.59-7.07,1.24-10.46.19,1.42.45,2.89.68,4.34,1.15-1.16,1.67-2.07,1.84-2.88.17-.82-.01-1.54-.2-2.25-.38-1.42-.79-2.79,1.51-4.81-1.87,1.16-.87-3.98-3.94-1.25.17-2.76,3.24-6.1,6.38-7.63.27-1-.68-1.02-1.37-2.03-4.41.72-2.68,5.78-7.35,5.27l.75,4.56c-3.49,1.34-5.91-.63-5.39-3.18-.61.79-.87,1.76-1.87,1.76-4.46-3.75,4.5-1.37,2-5.75l-1.53,1.99c-3.4-1.97,2-6.36,4.53-8.37,3.86-1.18,6.72-2.96,8.71-1.1l-2.76,4.16c1.65-.05,2.56-1.33,3.33-2.84.77-1.51,1.48-3.15,2.58-4.03.39.16.78.19,1.16.13-.27-.09-.49-.22-.67-.42.54-.29,1.17-.38,1.94-.18,1.96-1.49,3.65-5.11,5.96-5.93l-1.77-1.68.64,1.25c-1.78,1.39-5.1,2.25-4.96-.24,2.84-4.64,6.63-1.71,8.89-.86,1.49,3.63-3.8,3.19-4.95,5.84,3.57,1.82,4.16-3.08,9.72-4.53.94,4.43-4.64,3.86-3.13,7.45,3.62-2.14,2.56-5.16,6.68-7.04.72,1.8-2.49,4.59-.72,6.3.94-.32,1.91-.59,2.88-.86-1.31,1.09-1.67,1.88-1.58,2.45.09.57.66.95,1.27,1.32,1.22.73,2.64,1.42.96,3.51,2.91-.34.58-4.78,4.95-4.96-1.86-.78-6.11-1.51-4.41-4.86l3.77-1.46c2.45.55-.48,5.86,2.5,5.61l2.28-3.55c-.84-.87-2.72-.16-2.79-2.22,2.6-.43.19-6.03,1.36-9.12,1.84-1.24,3.4-2.09,4.86-1.42,1.16-3.13,3.28-5.63,5.37-8.1,2.1-2.45,4.12-4.95,5.4-7.75-1.63,3.95,2.42,3.35,5.17,3.73-3.11,2.63-1.01,5.78.57,7.64,1.79-1.65.99-5.78-.74-6.16,4.27-.94.94-3.74,5.34-3.57,2.65-.17,1.04,3.78,2.48,4.54,3.76-2.24-1.49-4.56,3.07-6.31.04.57-.25.92.44,1.32,2.62-.66,4.05-3.63,3.57-5.52,4.85,2.75,6.43-4.39,8.37,0,4.77-4.2-2.11-1.81-1.88-3.87,1.18-3.11,6.18-3.99,7.84-4.02-1.31.83-1.89,2.7-3.55,2.78l2.77,2.25c1.96-.45,2.99-1.21,3.56-2.13.57-.92.66-2.02.76-3.11.19-2.16.41-4.27,4.42-4.77-2.62,3.37.03,2.84-.56,5.82.63-1.28,6.24-3.21,1.93-3.8,2.61-1.11,4.67-1.37,6.66-1.71,1.67-2.25,3.7-4.29,4.07-6.91,3.75-1.4,7.43-.46,9.73.07,3.24-2.88,7.13-4.01,11-5.23,3.86-1.27,7.82-2.34,11.42-5.15l-.67.05c6.56-1.92-4.41-3.01,2.24-5.51.55,4.12,4.97,1.12,7.85,2.37,2.21-.24,4.12-.86,5.89-1.65,1.79-.74,3.43-1.65,5.06-2.54,1.63-.89,3.25-1.75,4.99-2.39,1.74-.65,3.62-.96,5.73-.89.19.84-.01,1.96-1.45,2.5,3.09-.26,5.73-.93,8.27-1.71,2.54-.78,5.01-1.54,7.67-2.16l-.1.54c2.32.24,4.46.01,6.52-.42,2.07-.42,4.04-1.11,6-1.95,1.96-.82,3.89-1.84,5.91-2.71,2.01-.89,4.07-1.77,6.24-2.47-.62.65-.49,2.2-.93,2.85,4.63-.11,11.83-.77,14.35-5.01,3,1.48,3.83,1.05,4.86.57,1.02-.48,2.25-1.01,5.97.39.5.65-.58.77-1.01.99,3.56.81,5.87.02,9.34.1,3.59-1.75,5.71-4.01,8.08-5.73,2.37-1.67,4.99-2.85,9.5-2.49.93,5.48-5.32,1.89-5.08,6.3,1.65-1.14,3.07-2.42,5.6-1.34-1.26,2.3-.2,1.39-1.01,3.5.98.65,2.69-1.02,4.2-2.66,1.5-1.67,2.79-3.43,2.79-3.17.03-1.08-.66-1.61-2.4-1.34.9-1.77,3.09-1.99,5.56-1.97,2.48,0,5.24.26,7.36-.48-.7-.01-2.17-.27-3.28-.81-1.1-.54-1.85-1.41-1.1-2.78,5.89.87,7.59-4.48,11.68-6.86,5.5,2.29-3.87,4.82-2.69,8.66.96,1.38,3.18,4.4,1.01,6,4.76.59,8.1-2.66,12.38-3.58l-.11,1.09c2.97-.3,6.05-1.54,9.03-2.46,2.98-.91,5.87-1.57,8.34-.33-.87-.46-1.75-.92-2.63-1.35,1.01-.67,4.01-.17,5.79-2.34-.25,1.82,3.57,3.64,1.9,5.07.73-1.43,1.97-2.33,3.46-2.95.75-.31,1.56-.56,2.4-.76.84-.18,1.72-.33,2.6-.48,3.52-.58,7.09-1.13,8.85-3.77,1.49,1.58-.02,3.84-.62,5.13-3.74-.79-4.96-2.04-7.11.13,3.16.16,5.34,1.83,4.74,3.12.86-.85,1.98-1.53,3.21-2.15,1.23-.6,2.57-1.08,3.87-1.58,2.59-1,5.01-2.02,6.02-3.75,2.13,2.04,4.2,3.28,3.03,6.2,4.91-.28,4.04-2.76,3.26-4.98-.78-2.22-1.45-4.18,4.09-3.41,4.62,3.59-5.42,3.28,1.34,5.21l-1.34.3c3.84,8.41,4.27-5.1,9.93-3.89.07,4.32-4.39,2.35-1,6,5.26-.2,8.66-6.11,13.58-3.71l-1.15,1.62c3.36.32,9.57,2.38,12.87,2.87-.03.85-.48.63-1.14.71,5.63,2.94,3.01-1.54,7.24,2.44l1.9-1.68c-2.11-1.99-6.49-5.12-10.15-3.47,1.83-.83.89-2.42-.24-4.21-1.12-1.79-2.46-3.7-1.29-5.32l-.94,1.3c-1.78-1.94-3.81-3.58-6.01-5.02-1.1-.72-2.24-1.39-3.42-2.02-1.18-.59-2.4-1.15-3.64-1.68-2.49-1.06-5.08-2-7.71-2.95-2.64-.91-5.33-1.73-8-2.7-1.88.84-3.53,1.06-5.08.94-1.55-.11-3.02-.5-4.49-.97-2.95-.91-5.97-2.04-9.83-.89-1.59,4.86-1.48.89-7.95,1.4,3.43-.36.68-3.74-1.44-4.57-1.34,1.18-2.9,1.53-4.45,1.93-1.17-1.74-9.19-6.17-12.29-2.87-3.89-1.66.96-1.59,1.86-2.58-1.53-2.61-3.28,1.93-4.54.19,0,0,.07-.54.5-.78-6.06.1-9.66-1.32-16-1.82-.24,2.44-1.77,2.92-3.6,3-1.83.08-3.95-.21-5.32.74.86-1.61-3.59-1.69-5.42-2.54l-3.2,3.75c-1.58,1.59-2.76,1.12-4.07.5-1.31-.63-2.77-1.43-4.86-.46l1.09.8c-1.52.84-4.38.66-7.28-.02-2.9-.6-5.86-1.71-7.53-2.87-1.76.77-3.47,1.44-5.14,2.01-1.67.59-3.29,1.15-4.89,1.6-3.19.92-6.26,1.48-9.25,1.9-5.97.93-11.72.79-17.54.8-2.91-.02-5.87-.13-8.88-.13-3,.04-6.08.13-9.26.35-3.19.18-6.45.67-9.85,1.33-3.4.67-6.94,1.55-10.58,2.9-1.56,1.94,2.05,2,1.09,4.52-2.86,1.35-3.6,1.34-6.31,2.14,2.76.61,1.94-.85,2,.54l3.83-2.45c.29.29-.13.56.45,1.12,1.29-.81,2.7-2.21,4.57-2.44-2.29,1.91-2.08,5.59-5.96,5.22.14-.55.56-.82,1.4-1.37-2.99.51-2.68,2.21-5.11,1.88-2.89-.05-1.93.84-2.7-.57l-8.82.62c-2.87,5.29-9.1,3.11-10.58,3.16-.11-3.35,5.13-2.78,6.24-6.41-1.24-.46-2.48-.88-3.72-1.29l.61,2.52-4.48.74.08-.55c-.19,1.12-.39,2.25-1.76,1.76-.3-.28-.94-.81-.51-1.11l-2.59,2.35c.9-3.12-2.93.14-3.49-2.9-5.21,1.06-8.01,3.18-10.75,4.92-2.73,1.8-5.37,3.27-10.46,3.01,1.94.81-.91,5.54-3.69,6.16-1.79-.06-2.44-.53-1.94-2.03l-2.8,2.91c-3.08-1.28-5.41-.81-7.76.25-2.36,1.05-4.8,2.58-8.26,3.27l-.26-1.38c-1.64,2.5-3.53,4.86-7.16,6.11l-.58-2.74c-5.06.39-.66,6.68-6.02,7.44,1.36,2.55,4.92,2.48,6.61,4.72-1.2-1.05-3.08-1.09-4.39-.66-1.3.44-2.03,1.31-.98,1.94-3.9,3.43-3.13,1.58-3.84,1.16l-1.78,2.96c-3.19,1.54-2.84-2.82-2.46-4.92-.72,2.18-2.16,3.17-3.83,3.86-1.67.7-3.61,1.03-5.38,1.75l.69-1.9-4.61,2.02c-1.72,3.55-5.46,6.11-9.69,7.27l.49-4.8c-3.59-.16-.61,1.93-.94,2.9-1.51,2.02-2.81,2.6-4.16,2.62-1.33.04-2.7-.49-4.33-.72-2.07,3.76-6.08,4.45-9.87,5.36-3.74.95-7.31,2.04-8.3,6.25ZM109.8,517.8l.71-.53c.32,1.61.74,2.59-.71.53ZM119.94,479.53c.29,4.99-1.1,3.08-2.22,3.18,2.17-4.3,1.62-7.14,3.86-10.85-.91.46-1.94.33-2.61.38.59-1.56,1.81-2.96,3.84-3.02,3.24,2.94-5.54,11.77-2.87,10.32ZM119.39,570.11c-.25-.22-.51-.46-.74-.71v-.03s.74.74.74.74ZM120.65,546.53c.88-.16,1.45-.63,1.9-1.25-1.1.21-2.02.45-1.9,1.25ZM135.35,502.24c1.81-.67,1.9-3.15,1.95-4.97-.36.77-1.19,2.1-1.95,4.97ZM241.69,233.38c-.26,1.5-.36,4.54,1.95,3.21-.52-1.71,2.7-2.21,1.48-4.18.14-.07.19-.06.29-.09-1.86.42-3.42.76-3.72,1.06ZM321.78,121.4c.84,1.36,1.17,3.34,2.46,3.81-.11.05-.26.11-.38.16.62.18,1.14.33,1.16.76,1.06-.49,2.2-.96,2.5-1.82-3.07-4.17-1.77-6.35-5.74-2.91Z"/><path class="cls-1" d="M303.49,168.05c.3-.43.61-.68.78-.97-.24.24-.48.54-.78.97Z"/><path class="cls-1" d="M327.33,124.44c-.14-.31-1.47.15-3.09.76.67.27,1.61.15,3.09-.76Z"/><path class="cls-1" d="M88.44,641.96l-.27-1.44-2,2.44c.91,4.81,3.07,5.42,5.42,6.97-1.67-4.46-.06-6.73.17-12.04l-3.32,4.07Z"/><path class="cls-1" d="M105.75,642.63c.76-.34,2.66-1.16,2.94-1.81l-1.42-.94-1.52,2.75Z"/><path class="cls-1" d="M122.81,590.79l-2.14,4c1.1,1.59,4.39-2.88,2.14-4Z"/><path class="cls-1" d="M92.58,604.77l1.29,2.56c1.72-1.78,2.04-4.52.27-5.31.52,2.89-1.15.48-1.56,2.75Z"/><path class="cls-1" d="M125.32,579.46c-2.78-1.91,2.17-3.98-.53-5.41.63,1.28-2.47,4.61.53,5.41Z"/><path class="cls-1" d="M95.87,576.88c-3.13.81-1.05,3.55-2.23,6.14.42-2.26,4.08-4.84,2.23-6.14Z"/><path class="cls-1" d="M121.23,555.02c2.12.66,1.61,2.41.69,4.32-.54-.81-1.45-1.45-1.61-2.42,1.01,3.69.62,3.85,1.09,6.73,2.06-2.37,3.87-6.19,6.48-5.21-1.62-2.39-4.15-5.47-6.65-3.42Z"/><path class="cls-1" d="M96.78,570.29c-1.28,2.1-3.56,3.06-3.91,5.81,1.61-.18,3.98-.66,4.24-3.89l2.31,1.62c2.43-2.57-3.58.5-2.64-3.54Z"/><path class="cls-1" d="M129.62,543.97l-1.45,1.1c1.34,3.53-.46,7.33,2.38,9.74.58-3.8.19-8.75-.93-10.84Z"/><path class="cls-1" d="M103.66,560.15l-3.45-1.13c-1.13,3.05,1.23,0,1.84,1.3-.69.8-1.29,2.08-.75,2.88.2-3.69,2.9.34,2.35-3.05Z"/><path class="cls-1" d="M101.87,549.02l-.69-4.35-4.5,2.37c.38,5.02,2.15.67,5.19,1.98Z"/><path class="cls-1" d="M105.23,544.54l.77-.31-3.93-7.15c1.42,4.07,1.03,4.22,3.16,7.46Z"/><path class="cls-1" d="M144.76,477.29c-1.33-1.05-4.07,1.94-2.03.88,1.07.98,4.18-3.13,2.03-.88Z"/><path class="cls-1" d="M113.14,484.52c1.56-1.44.85-7.59.45-10.32-.02,3.12-2.59,10.23-.45,10.32Z"/><path class="cls-1" d="M113.44,473.09c.04.22.1.63.15,1.11,0-.48-.03-.83-.15-1.11Z"/><path class="cls-1" d="M137.12,367.68c.05-.28.03-.57-.12-.88.04.3.08.57.12.88Z"/><path class="cls-1" d="M137.11,370.43c-1.07,1.48-1.34,5.07.04,6.19.17-2.86.53-5.31-.02-8.94-.23,1.21-1.83,2.21-.01,2.75Z"/><path class="cls-1" d="M146.61,347.34c.44,1.57-.65,3.05.91,3.17.87-.44.37-3.59-.91-3.17Z"/><path class="cls-1" d="M262.67,224.63c1.97-1.34,2.24-2.77.05-3.6-1.45,2.06.45,1.73-.05,3.6Z"/><polygon class="cls-1" points="264.03 218.41 265.11 218.83 267.36 218.65 264.03 218.41"/><path class="cls-1" d="M275.95,208.03c.21.31.28.86.21,1.33.29-.87.5-1.65-.21-1.33Z"/><path class="cls-1" d="M275.99,209.8c.06-.12.12-.29.16-.43-.05.14-.11.3-.16.43Z"/><path class="cls-1" d="M274.81,210.16l.85.87c.01-.3.19-.77.34-1.23-.19.38-.59.62-1.19.36Z"/><path class="cls-1" d="M279.1,204.64l-4.51.2c-.55,3.45,3.53-1.66,4.56,2.96l-.05-3.17Z"/><path class="cls-1" d="M284.76,196.07c2.65-1.42,1.13-8,5.25-6.6,1.75-3.73.18-4.49-1.25-5.3-1.41-.8-2.75-1.71-.29-5.7-7.27,5.27,3.05,8.48-3.6,12.87,4.31-1.21-.06,3.18-.1,4.73Z"/><path class="cls-1" d="M278.61,192.78c1.28,1.64,3.73-.99,3.41-2.72-.84.65-4.21.24-3.41,2.72Z"/><polygon class="cls-1" points="293.39 183.02 296.2 182.26 295.66 180.93 293.39 183.02"/><path class="cls-1" d="M300.2,176.75l.16,3.33c-.16-1.19,2.35-3.68-.16-3.33Z"/><path class="cls-1" d="M311.06,169.44c2.12-1.01-.36-6.24-2.81-2.08l.9-.61c.42.78,3.56.33,1.91,2.69Z"/><path class="cls-1" d="M326.4,142.65c-1.21.97-2.08,2.72-1.08,3.33l2.34-3.7-1.27.37Z"/><path class="cls-1" d="M317.04,133.28c-3.31-1.44-2.82,2.99-5.68,4.16,2.85-1.78,2.87-1.17,5.68-4.16Z"/><path class="cls-1" d="M333.09,142.91c.02,1.72-1.8,2.3-2.73,2.84,1.64,1.05,3.4-1.28,2.73-2.84Z"/><path class="cls-1" d="M337.43,137.73c1.91.13.98,1.6,2.35,1.62,3.2-.76,5.38-2.88,5.48-5.37-1.48-.59-4.74-2.84-4.87-4.92-2.88,3.99-.7,10.2-5.53,8.11l.81,6.88c3.44-1.7-.47-4.89,1.74-6.32Z"/><path class="cls-1" d="M322.93,135.78c1.06-.1,2.1-.23,3.19-.29-1.64-1.07-.37-2.58.27-3.93-3.29-2.72-2.6,3-3.47,4.22Z"/><polygon class="cls-1" points="356.08 119.35 359.8 115.38 358.26 116.23 356.08 119.35"/><polygon class="cls-1" points="359.64 118.4 360.48 119.29 362.43 115.06 359.64 118.4"/><polygon class="cls-1" points="364.97 116.23 364.35 116.45 362.46 119.18 364.97 116.23"/><path class="cls-1" d="M374.53,110.58l-1.8-.91c-.84,1.15-4.2,1.06-2.61,2.89.5-1.34,2.97-2.7,4.41-1.98Z"/><path class="cls-1" d="M383.88,51.87c-.35,1.56.7,2.15,1.77,2.76l.02-3.46c-.37.37-1.1,1.1-1.79.7Z"/><path class="cls-1" d="M392.46,52.84l2.22-5.1c-4.68,1.89-4.02,4.62-7.6,7.13,2.15.09,3.25-3.29,5.75-3.56l-.37,1.52Z"/><path class="cls-1" d="M472.94,21.87c.3,2.23,1.12,1.64-1.45,4.01,1.84-1.36,3.72-2.14,5.71-2.83,1.99-.69,4.09-1.28,6.43-2.16-1.21-1.1,1.71-4.5.03-3.37l-4.98,2.89.37-1.69c-4.27-.5-1.74,3.11-6.1,3.16Z"/><path class="cls-1" d="M690.93,30.69c-.68.97-.23,2.05.22,3.13,3.31-.57-.88-3.02-.22-3.13Z"/><path class="cls-1" d="M335.85,440.52c-.6-2.93-.74-.64-1.57.25l1.57-.25Z"/><path class="cls-1" d="M334.29,440.77l-1.11.17c.47.26.83.12,1.11-.17Z"/><path class="cls-1" d="M324.89,444.14c.79-3.08,4.67-1.82,4.13-5.51-3-.59-5.61,1.98-4.13,5.51Z"/><polygon class="cls-1" points="328.93 444.3 328.22 442.54 328.02 446.07 328.93 444.3"/><polygon class="cls-1" points="331.02 445.05 330.42 444.61 328.77 447.83 331.02 445.05"/><path class="cls-1" d="M317.64,446.92l1.67-1.61c3.15,1.09.6,3.65,2.72,4.38,2.4-1.46-1.95-5.04,1.52-6.15-1.49-1.91-4.84,2.94-6.34-.58-3.19.53,1.05,1.97.43,3.95Z"/><path class="cls-1" d="M225,545.74c-.2-.04-.31-.02-.47-.04.37.2.66.32.47.04Z"/><path class="cls-1" d="M201.98,573.6c-.61.11-1.11.33-1.55.59.38.15.77.24,1.15.25l.4-.84Z"/><path class="cls-1" d="M236.62,524.91c.67-.04,1.22-.16,1.69-.29-.56-.21-1.13-.2-1.69.29Z"/><path class="cls-1" d="M98.97,644.04c.19-.26.42-.64.73-1.22,0-.03.02-.09.04-.15l-.74.96-.03.41Z"/><path class="cls-1" d="M180.66,608.05c-.31.48-.57.97-.66,1.52.61-.7.76-1.16.66-1.52Z"/><path class="cls-1" d="M246.27,515.92c-.17.11-.3.23-.43.34.22-.01.5-.06.77-.16l-.32-.21s0,0-.02.02Z"/><path class="cls-1" d="M213.69,568.48c-.52.17-.97.35-1.22.63.53-.11.91-.35,1.22-.63Z"/><path class="cls-1" d="M286.33,462.62c-.73.09-1.03.59-1.16,1.23.66.23,1.15.01,1.16-1.23Z"/><path class="cls-1" d="M275.61,470.76s.03-.05.05-.06c-.33-.32-.31-.22-.05.06Z"/><path class="cls-1" d="M268.53,475.66c.02-.07.04-.11.06-.17-.28-.2-.36-.22-.06.17Z"/><path class="cls-1" d="M285.17,463.85c-1.77-.58-4.83-4.3-2.96.82l.65.41c-1.41-.48-1.25,1.93-1.97,2.64.38.35.71.61,1.05.83.45-.24,1.07-.5,2.11-.81,1.63.2.82-2.29,1.13-3.89Z"/><path class="cls-1" d="M224.42,544.95c.77.6,1.03-.36,0,0h0Z"/><path class="cls-1" d="M229.72,534.33c-.31.2-.63.4-.92.63.39-.1.78-.21.92-.63Z"/><path class="cls-1" d="M262.3,507.37c-.11-.02-.18-.01-.29-.04.3.46.37.29.29.04Z"/><path class="cls-1" d="M228.02,535.62c.23-.25.51-.45.78-.66-.36.08-.69.2-.78.66Z"/><path class="cls-1" d="M250.74,513.37c-.08,0-.18-.02-.22,0,.08.03.16.03.22,0Z"/><path class="cls-1" d="M56.44,477.4c.72.66-.41,1.61-.52,2.52,3.9.54-1.22-3.59,2.6-2.14-.3-.76-.95-1.2-1.62-1.6l-2.69,2.21c1.75,1.07.67-1.39,2.21-.99Z"/><path class="cls-1" d="M101.33,630.46l-.16.43c1.09-1.39,1.47-1.72,1.88-2.94-.97.68-2.06,1.85-3.18,3.04-1.12,1.18-2.27,2.37-3.53,2.61.3.09.36.58.26,1.23,1.37-2.23,3.24-3.3,4.73-4.38Z"/><path class="cls-1" d="M96.6,634.84c-.03.05-.07.11-.12.18-.22.32-.39.61-.54.89.07.24.05.55-.05.93.38-.67.63-1.41.72-2Z"/><path class="cls-1" d="M64.87,504.89c.02.37.04.7.03,1.01.44-.66.33-.92-.03-1.01Z"/><path class="cls-1" d="M149.45,580.06c.02-.54,0-1.09-.05-1.57-.28.62-.18,1.12.05,1.57Z"/><path class="cls-1" d="M103.3,645.42c-.06.6-.05,1.04-.03,1.44.07.06.15.05.22.15l-.19-1.59Z"/><path class="cls-1" d="M54.64,604.02c3.76-.59-.47-.42,1.06-2.53l-2.33-.59c-.13,1.37.83,2.23,1.27,3.12Z"/><path class="cls-1" d="M57.12,476.02c-.11.04-.2.07-.32.1.04.03.07.04.12.07l.2-.17Z"/><path class="cls-1" d="M40.24,566.67c.11-.28.19-.53.26-.79-.16.2-.26.45-.26.79Z"/><path class="cls-1" d="M97.55,642.16l1.27,4.15.16-2.27c-.67.87-.63-.17-.61-1.09.02-.93.03-1.75-.82-.79Z"/><path class="cls-1" d="M60.08,625.42l-1.97,1.2c3.14,1.59,3.59,4.35,4.22,6.91.16.64.33,1.27.55,1.86.11.3.24.58.39.86l.11.2s.12.25.18.36c.13.27.27.53.41.78,1.15,2.05,2.66,3.76,4.8,4.69-.79,3.66-.55,5.93.1,7.18.66,1.27,1.74,1.57,2.82,1.77,1.08.2,2.14.3,2.79,1.24.65.96.87,2.71.39,6.63l.75-1.26c3.91,12.26,7.82,25.69,12.07,39.54,2.12,6.91,4.31,13.88,6.55,20.66,1.12,3.39,2.25,6.72,3.39,9.96.57,1.6,1.14,3.19,1.71,4.78l.86,2.33c.29.75.57,1.35.85,2.01,4.41-8.14,8.77-16.85,12.75-25.87l.04,3.18c3.42-5.4,6.88-11.08,10.49-17.03,3.58-5.93,7.16-12.02,10.72-18.18,1.78-3.1,3.55-6.19,5.32-9.28.44-.77.88-1.57,1.33-2.32l1.35-2.22,2.68-4.45c.9-1.48,1.77-2.99,2.68-4.43l2.74-4.25,2.73-4.25,1.59-2.53c3.44-5.75,7.28-11.24,11.04-16.79,3.71-5.59,7.94-10.83,12.23-16.03.36-2.91-3.34-3.85-3.42-6.68.69-.67,1.84-2.51,3.39-1.3-.27,2.13,1.72,2.38,1.95,3.35,1.69-2.55,5.99-4.12,5.83-7.73l-3.41.17c-.16-1.49,1.46-2.33,2.16-2.99.75,1.13,3.77,1.8,3.72,2.83-1.24-8.43,4.9-1.73,6.02-7.03-3.55-4.22-2.85-11.62-3.07-17.21l2.45-.68c-1.88,2.1,2.98,2.55.49,5,3.08-1.16,3.12-4.71,5.57-6.21-1.36-.5-2.58-1.78-2.3-3.02,1.68-.77,3.74.89,5.26-.33-.02.84-.04,1.68-.03,2.54,2.33.38,1.14-2.17,1.7-3.27,1.92,1.23,4.18-.57,5.67,1.49-.49-3.96,1.4-3.45,1.88-6.8-3.7.49-1.64-2.57-3.22-3.62l-1.6,3c4.25-2.35-.74,1.37,2.31,3.72-2.78.38-2.58-6.48-4.64-3.41,1.56-4.52,3.44-4.01,4.2-9.47-1.33,2.47-1.45-2.1-3.29-1.85,2.26-2.62,1.56.3,4.06,1.23,1.2-1.44,3.22-.44,2.42-3.61,2.97-1.33,1.74,2.33,3.93,2.34,1.05,2.57-8.15,3.8-1.5,9.02-1,1.2.04,4.8-1.61,6.31,2.15-.67,6.04-.79,6.3-3.86l-3.34-3.38c1.18-1.42-.89-3.95.34-4.61.48,1.45,2.82,1.95,3.59.63-.78-.17-1.09.35-1.57-.34,1.69-2.18-.35-4.72,1.35-7.68-2.8,1.05-4.21.44-7.5.81-1.89-2.82.93-1.62,1.72-2.96.16.48,0,.76.79.91v-2.26c3.44-1.4,3.12,3.7,6.24,2.86,3.33.62.77-2.97,2.93-2.89-.28-.15-.58-.31-.8-.4.27-.19.49-.3.68-.36-.06-.05-.12-.08-.18-.15.93-1.62,2.49-2.79,1.12-4.93.92.68.89-1.35.78-2.32.03-1.42-.21-5.19,3.65-3.32,0,.05-.06.05-.07.09,1.98-1.19,4.12-1.47,4.68-.16l3.33-1.73,1.91,2.64c1.8-2.87.28-4.04-.31-8.05,1.52-.09,2.76-1.14,3.69-2.39.95-1.22,1.57-2.67,1.77-3.63.28-.07.59-.33.98-.89l-1.89-.05c2.05-1.59.68-2.67,1.97-3.8-.47,0-.63-.1.43-.34.26-.15.53-.31.9-.46.16.32-.16.53-.57.65l.95.61c3.82,1.24,1.12-3.56,3.58-4.1-.08.23-.2.63-.4.76,1.51-.16,5.82,2.16,4.4-.3.45.08.41-.63.28-1.44l1-.23c-.38.13-.71.19-1,.21-.17-1.08-.5-2.32,0-1.84.92-.56,1.86-1.08,2.81-1.59.77-.02,1.14-.84,1.37-1.61l1.28.7c.77-.88,1.28-.27,1.41.1,6.05,1.1,3.32-5.76,9.21-5.33-.75-2.27-2.77-1.94-3.63-2.8-.55-1.77.44-4.55.66-6.31,3.42,1.18,9.87-.17,11.81,3.94,3.05-1.86-2.56-1.52-2.07-3.82l.43-.11c-1.3.33-3-.3-4.61-1.24-1.69-1.74.43-4.22,1.63-4.26l1.54,3.15c1.92-2.95-1.75-6.65-2.14-10.66,2.95-.53,3.58,2.9,5.87,5.02l1.71-2.36,1.53,2.07c1.03-1.63-.06-3.83,2.54-4.52-.04,3,4.47-.21,4.35,3.87,1.63-.09-.95-4.36,1.63-1.98-.82-2.79-1.81-.4-2.89-.7-2.78-2.88,1.39-3.29,2.16-5.08,1.3,1.59.49,2.6,2.88,2.59-.57-1.49-.24-3.19,1.76-2.28-1.48-2.11,1.52-1.7,2.52-2.21-1.31.3-3.87-.21-4.48-2.5.21-1.41.61-2.32,2.63-3.32l-1.94-.11c-.54-4.24,4.19.4,5.68-2.12-.05,1.92-.62,2.33-.35,4.44.35-1.69,1.2-4.67,2.19-6.71l3.96,1.91c-.81-1.72,2.19-1.23.77-3.38,3.28-.07-.17,3.8.66,5.52,3.84-.46-.03-5.1,4.92-3.62l.39,2.61c1.01-.45,2.12-2.82,2.89-1.88-.47-.73-.75-.13-1.32.24-2.24-4.7,2.34-5.82-.87-10.09l-1.48.55c1.43-2.16.93-6.14,3.47-5.55,2.09.69,1.09,3.59,1.13,5.21,2.05-.91-1.61-5.96.97-6.91-1.66,0-2.44-1.75-2.43-3.35-1.54.48-4.8,1.44-3.13,3l.75.13c.61,1.24.18,2.14.19,2.95-1.78,1.16-2.12-1.49-3.03-2.13-3.43,1.22,2.62,4.64-.17,6.26l-.91-.64c-.55,2-2.46,3.46-1.02,6.42-3.07-2.11-2.29,3.12-4.71,2.25-4.44-6.13,4.86-2.55,4.12-6.99-2.26-.37-1.16-3.55-1.49-5.39l-2.71,5.66c-.92-.63-4.33-2.91-3.63-.09l.45-.09c-1.31,1.88.9,4.13-1.22,4.28-.62-.42-.82-1.72-.99-2.23-1.81.35-.21,2.22-.75,3.43-1.77.41-1.04-3.05-2.68-2.93.03,3.54-2.94,1.22-4.25,2.35,3.02,3.12-2.19,8.68,2.97,9.67l-1.62,4.71c-2.33-1.09-1.19-6.5-4.19-8.81l2.76-1.74c-3.51-4.05-3.56,6.76-8.79,3.15-1.55.84-.8,1.13-5.01.97l3.26,3.51c-2.01.14-3.99-1.61-4.57-2.27-.62.85-1.42,1.3-2.29,1.7-.22-.71-.32-1.44.01-2.01-2.61-1.34-2.33-.32-1.85,1.08.16,1.38-.79,1.9-1.67,2.51l-.29-2c-.29.72-.62,1.61-.17,2.34-.35.28-.62.63-.77,1.1.73.49,2.98,2.28,4.94,2.34-4.29.89-6.14,3.57-11.28,2.52-.74-1.16-.65-3.38-1.1-3.26-1.81.48-1.79,3.52-.39,5.06-.22.35-.42.58-.61.75-.98-.73-2.08-1.47-2.84-1.12-.41-.22-.89-.32-1.44-.07,1.91,3.32-1.82,3.9-1.3,5.69.84-.18,1.56-.8,2.22-1.5.5,2.84,1.37,5.85-.72,4.93.47-3.47-4.59-1.35-2.26-4.58-5.12-2.03,1.06,3.56-2.23,4.04l-2.63-.3c-1.53-2.3,1.46-2.96.47-3.48l-.78,1.08c-.3-2.41,4.34-4.42,4.75-8.74l-5.67,2.62c-1.92,3.69-5.36,6.24-8.38,9.08-2.98,2.88-5.64,5.93-6.08,10.31.06-.07.11-.15.16-.24.09.27.39.7,1.01,1.54l-.67-.33.41,2.39c-2.79-.99-5.17.4-8.28.39q2.23.32,3.71,1.76c1.62,2.25,2.23,3.25-.05,3.9-1.33-1.44-.31-2.28-2.52-2.38,1.24.16,1.63,1.68,1.11,2.49-1.73-.12-3.38,1.05-4.72-.39.05-.77.84-.58,1.31-.63.06-.77-2.85.25-2.72-2.08l-1.23,1.91c-2.04-.33-1.12-2.48-2.2-2.91-1.79,3.48-.09,8.05-1.58,11.25-.6-.86-3.57-4.07-2.72-3.12-2.76.79-.74,7.12-2.53,9.38-.6-1.23.52-1.61.73-2.65-3.75,2.44-6.85,5-10.18,7.24-3.31,2.27-6.86,4.2-11.23,5.77l1.76,4.68-3.64-.48c-8.05,4.43-10.65,11.24-15.01,18.43-1.49,2.13-3.37-.9-5.13-.81-2.07,1.98-2.38,4.06-2.52,6.23-.11,2.19-.14,4.39-1.44,6.82-.59-1.46-2.73-4.94-4.35-3.24.72,1.17,2.1,2.7.55,3.32l-.58-1.46c-2.4-.24-1.76,1.98-4.19,3.6-3.04,3.9-3.6,9.52-2.18,15.73-2.97,3.15-3.53-3.33-4.79-3.28,3.15-1.42.7-2.16-.11-3.65-.06,2.03-.59,4.11-3.64,2.79-1.22,1.93-1.96,2.66-1.61,5.76-.18-1.56,1.78-1.27,2.29.45-2.01.79-3.88,5.28-6.92,2.66-1.47,2.27-3.09,4.51-4.74,6.8-1.6,2.32-3.29,4.65-5,7-1.72,2.34-3.45,4.7-5.17,7.05-.85,1.19-1.73,2.35-2.54,3.56-.79,1.22-1.58,2.44-2.37,3.65.65,2.77,1.47-.79,2.09.91.34,1.93-.25,2.19-.87,2.37-.31.09-.62.15-.82.38-.1.12-.17.28-.2.5-.02.11-.02.24-.01.39,0,.15.1.21.17.34-.58-.44-.98-1.16-1.42-1.82-.13.16-.26.36-.35.51-.03.06-.04.13-.04.21,0,.16.04.35.11.58.14.45.39,1.05.67,1.74.56,1.38,1.19,3.18,1.38,4.73-.73-1.15-1.23-1.32-1.57-1.53-.34-.19-.51-.41-.7-1.47-.04.44-1.9-1.6-3.43-3.73-1.55-2.1-2.77-4.26-2.16-3.11,1.92,3.38,3.95,6.57,6.11,9.57.56.98-.34,1.29.09,1.87-1.48-1.43-2.95-3.56-3.09-3.31-1.27-2.86-.71-2.72-.51-2.95-1.15-2.24-1.61-2.8-1.99-3.43-.39-.6-.66-1.3-1.61-3.54.74,1.83.6,1.48.73,1.81.31.76.71,1.58,1.02,2.6-.2-.26-.39-.54-.56-.84.23.54.49,1.05.76,1.53.21.9.61,2.42.78,3.45.18,1.01.09,1.57-.5.24.36,2.1.65,4.32.85,6.68-.52-2.41-.65-2.5-.72-2.06-.07.44-.11,1.45-.33,1.06-.1-1.22-.22-2.42-.35-3.59-.24.61-.49-.11-.82-1.96-.19-2.56-.14-2.3-.07-2.03.07.27.14.57-.13-1.7-.11-.45-.21-.93-.3-1.43.34,3.14.4,5.96.77,7.57.35,6.35.35,12.14-.9,13.8-.29-2.69-.13-4.39-.01-6.01.13-1.64.23-3.22.09-6.12-.18-.36-.28.53-.42,2.19-.19,2.56-.34,4.68-.48,6.62-.37,5.06-.91,10.67-1.32,11-.54-.65-.86,1.56-1.39,4.08-.08.37-.16.76-.25,1.17-.04.19-.09.38-.14.58-.04.16-.1.46-.14.44-.15.17-.32.14-.49-.21.41-2.2.41-3.99.4-5.78-.02-1.8-.06-3.63.2-6.09.31-1.45.61-2.94.89-4.47-.36,1.09-.25-1.24.29-4.61-.87,6.63-1.54,4.19-2.55,5.72l-.95,5.09c-.37.25-.89.69-1.35.7-.46.02-.87-.39-.95-1.61-.56-.32-1.11.49-1.79,1.7-.68,1.2-1.47,2.83-2.62,3.85.89-4.52,2.56-8.12,4.24-11.92-.56,2.38.17,2.09.05,4.15,1.02-.51,2.28-2.75,3.21-4.61.94-1.82,1.55-3.27,1.58-1.31,1.24-5.92,1.1-5.76.73-4.72-.37,1.04-1.07,2.67-.72.36.17-.66.23-.83.28-.9-.01-.08-.02-.17.03-.47.49-.95,1.1-2.24,2.29-8.48-.16.51-.8,3.41-1.3,5.45-.5,2.05-.88,3.16-.43.39-.48,1.28-.23-.41.22-2.35.44-1.96,1.08-4.21,1.17-4.61-.62,1.77-1.61,4.55-2.43,6.53-.82,2-1.51,3.12-1.46,1.81.74-1.44,1.46-2.96,2.15-4.54-.13-.46-.92,1.19-1.73,2.75-.81,1.57-1.63,3.07-1.86,2.21-.04.52-.62,1.48-1.17,2.41-.55.94-1.05,1.88-.84,2.61-1.38,1.78-2.28.36-2-1.89-.49.25-.86,1.19-1.71,2.38-.58,2.05.07,2.07.58,2.09.51.05.88.09.01,2.92.92-1.21,1.82-2.49,2.69-3.85-.41,2.95-2.03,7.55-3.29,8.53.26.26.71-.08.45,1.18-1.57,4.16-1.49,2.88-1.36,1.39.12-1.5.32-3.12-1.29-.34l.72.77c-1.95,5.63-3.19.88-3.7-1.29.39-4.09.23-6.43,2.13-9.16.56.4,1.1.75,1.63,1.06.53-1.73.09-2.01-.58-2.17-.66-.14-1.56-.15-1.77-.88.25-.41.41-.78.5-1.1-.16.27-.33.52-.53.75,0-.4.16-.93.58-1.68-.15-.61-.69-.99-1.18-1.48-.48-.48-.91-1.07-.74-1.89l-1.97,1.7,1.19-.73c.16.58.07,1.5-.26,2.38-.34.87-.92,1.7-1.81,1.88-1.2-.84-.93-2.29-.1-3.59.82-1.32,2.17-2.59,2.98-3.47,1.69-.8,1.86-.32,1.81.48-.05.79-.3,1.93.41,2.03,1.35-1.69,1.26-2.21.96-2.85-.29-.62-.81-1.42-.09-3.01,1.91-.65,2.06-.21,2.18.28.11.48.2.98,1.79-.1.07-.82-.51-.83-1.1-.96-.58-.11-1.15-.35-.94-1.28,1.76-.64,2.32.39,4.36-1.04.26-.41.53-.8.81-1.16.34.6,1.39-.2,2.53-1,1.14-.82,2.4-1.58,2.87-1.73.69-.54-.03-.09-.68.2-.64.31-1.24.43-.12-.26-.79.4-1.88,1.05-2.94,1.68-1.07.62-2.13,1.21-2.98,1.18.26-.45.53-.87.81-1.25.22-.1.43-.27.67-.36.23-.11.51-.09.76-.18.35-.09.95-.25,1.52-.39,1.01-.27,1.93-.65,2.67-1.04l-.34.07c-.12,0-.2.12-.41-.12l-1.09-.98c-1.1.49-1.25,1.86-3.07,1.7.71-1.85-5.21-.72-7.49-1.76-.39-1.35-.53-2.48.62-3.43-4.56-2.1-5.96-6.35-10.26-8.26,3.03,1.26,3.85-1.49,5.1-3.36,1.35,2.23,4.91.96,7.13-.04-.91-1.32-4.92-.95-5.84.22.57-2.97-3.08-.79-1.46-3.81.73-1.84,3.76-.58,4.93-1.54-.8-2.7-4.58.85-4.78-2.32.53-.01.77.19,1.35-.27.19-1.82-2.09-2.88-3.97-2.57,4.04-3.33-2.18-4.46,2.44-5.77-2.57-3.3-2.26,1.45-4.1,1.28-2.55-.81-1.94-4.23-1.55-5.38.43.89,1.97,1.29,1.6,2.43l2.84-1.92c.54-5.46-8.15-.38-7.07-5.86,2.47,1.72,2.65-.09,5.27.26-1.03-.41-1.43-4.25-3.05-1.25-.35-1.79-.21-3.16-.06-4.53-1.75-1.06-3.2-2.38-5.57-2.51-.53-2.48,1.05-5.04,2.01-6.66-4.07-4.15-1.87-10.14-6.18-14.51l-.05.46c-.89-4.28-3.51,3.31-4.93-.96,4.04-.83,1.67-3.47,3.21-5.57.09-5.89-6.05-7.94-5.2-13.64.82-.25,1.89-.29,2.32.6-.11-4.08-1.95-6.74-2.93-10.1l.52-.03c1.2-6.39-4.27-9.82-7.17-14.93.64.27,2.13-.14,2.76.01-.13-3.06-1.16-7.65-5.36-8.31,2.59-4.63-1.93-1.74.21-7.26.59-.49.78.19,1.03.41.52-2.52-.41-3.84-.71-6.09-4.11-3.72-9.45-3.07-9.91-8.95,5.11-2.16,2.48,2.82,6.67,1.43-1.31-.73-2.71-1.27-2.01-3.19,2.36.15,1.35-.27,3.48-.35.96-1.62-7.08-2.57-6.58-2.73-1.03.3-1.44.89-.91,1.89-3.66-.09-2.17-5.16-4.4-7.28.22.87.16,3.89-2.67,3.79-.16-3.88-5.58-3.21-8.54-4.89,1.2-4.06,5.24.77,8.67-1.15,1.14-1.02,3.59-3.36,5.5-2.54-.26-3.16-4.14-4.1-5.87-6.38l1.05-.3c-1.73-3.43-7.63-5.62-6.64-9.38l-.6,2.02c-.83-.36-1.19-2.28-3.65-2.51,1.76-.52,2.45-3.41,4.21-2.97-6.07.4-6.29-6.94-12.14-6.84,1.03-1.46,3.53-1.5,4.89-1.66.35,2.43-.47,3.6,2.16,3.99-.76-1.85.15-3.74,1.51-3.91-4.1-.65-7.07-4.64-10.84-4.35,1.22-2,1.67-3.64,4.69-4.2-3.87-5.13-7.76,6.04-10.08-.49,1.68-3.97,4.79,1.54,4.25-2.9l.72.59c6.27-5.62-5.99-.18-6.96-3.62,3.84-1.9,3.7,1.3,5.73-2.05-2.12-2.7-8.53-1.9-8.36-5.43l1.87-.13c-1.03-1.85-1.6-5.96-2.62-7.8.75-.38.75-.05,1.1.24.2-4.17-2.59-.77-.9-4.73l-2.25-.15c-.84,1.99-1.75,5.57,1.21,6.63-2.96-1.05-3.99,4.78-7.73,5.08l1.5-.12c-4.08,7.04-2.52,13.63-2.47,20.67,5.51,2.45.78,7.29,5.14,10.48,4.91-1.04,1.22.45,3.48,3.73-1.28-1.71-3.64,1.06-3.83,2.5,1.46.27,2.22.97,2.95,1.68-1.33,1.31-3.44,7.24.34,7.76-.7,2.75-1.69.03-2.83-.1-2.07,1.77,2.53,1.12,1.18,2.43,0,0-.52.15-.84,0,1.41,3.3.92,5.76,1.61,9.48,4.69-1.37,2.98,2.82,5.18,3.79-1.67.03-1,2.6-1.51,3.91l4.09.65c3.57.81-1.1,3.33,1.34,5.17l.61-.88c2.01,1.26.94,6.89-.9,9.51,14.85,12.99,4.08,26.95,12.71,43.18,1.79.61,2.02-1.66,4.39-1.52,1.16,1.55,1.11,2.01,1.75,3.57.72-1.84-.72-1.07.62-1.35l-2.17-1.96c.3-.24.53-.02,1.1-.49-.72-.66-1.98-1.29-2.12-2.42,1.73,1.07,5.27.26,4.73,2.78-.52.01-.76-.2-1.25-.63.34,1.79,2,1.29,1.56,2.88-.19,1.83.72,1.07-.68,1.8l-.07,5.49c4.92.94,2.14,5.31,2.05,6.23-3.22.57-2.09-2.86-5.5-2.97l-1.59,2.55,2.46-.78.24,2.72-.52.03c1.05-.05,2.11-.09,1.5.85-.3.23-.87.71-1.11.49l1.98,1.29c-2.89-.12-.19,1.83-3.17,2.62.64,6.3,6.57,5.93,4.46,12.44,1.07-1.32,5.16-.05,5.19,1.71-.38,1.16-.95,1.62-2.27,1.45l2.23,1.51c-3.59,4.21.23,5.66.05,9.98l-1.35.27c2.02.85,3.76,1.91,4.05,4.18l-2.69.54c-.87,3.21,6.07.01,5.46,3.43,2.74-1.01,3.5-3.3,6-4.52-2.55,1.68-1.86,4.86-.13,3.44,2.14,2.41.64,1.98.06,2.46l2.27,1.05c.59,2.03-3.37,1.94-5.2,1.78,3.62.77,2.27,3.54,2.57,5.81l-1.54-.4.5,2.94c2.79,1.02,3.87,3.48,3.58,6.21l-4.19-.29c-1.29,2.31,1.55.39,2.32.59,2.7,1.94.44,3.38-1.1,5.48,5.27,2.76-2.94,10.36,3.76,11.93ZM260.34,506.6l-.68-.19c.28-1.08.29-1.88.68.19ZM241.59,521.23c1.16-3,1.69-1.05,2.56-.39-1.41.53-2.21,1.28-2.99,1.99-.76.73-1.51,1.42-2.84,1.8.81.3,1.56,1.01,2.08,1.39-.85.54-2.14.59-3.71-.62-.85-1.84.98-2.7,2.71-3.18,1.73-.49,3.42-.54,2.2-.98ZM271.7,472.17c.09.29.18.6.24.9h-.01s-.22-.9-.22-.9ZM262.15,483.69c-.67-.52-1.23-.65-1.77-.62.85.64,1.57,1.14,1.77.62ZM236.74,498.52c-1.56-.78-2.41.6-3.01,1.62.51-.21,1.54-.45,3.01-1.62ZM121,634.01c-.04-.51-.17-1.33-.45-2.03-.28-.71-.72-1.32-1.27-1.54.32.77.02.76-.21.82-.22.06-.38.18.12,1.36-.07-.04-.09-.08-.14-.12.95.92,1.82,1.57,1.95,1.52ZM89.09,642.49c1.29-1.09,2.81-1.93,3.59-3.28,0,.09-.01.21-.02.32.34-.63.63-1.15.95-1.29.03-.84.12-1.71-.39-1.76-4.14,3.72-5.38,2.71-4.13,6.02Z"/><path class="cls-1" d="M108.37,633.45c-.07.05-.08-.09-.13,0,.02.06.07.06.13,0Z"/><path class="cls-1" d="M93.25,636.6c-.28.19-.44,1.26-.57,2.61.43-.7.68-1.53.57-2.61Z"/><path class="cls-1" d="M320.19,459.92l-.42.89,2.22.4c1.39-2.98.38-4.88-.41-7.45-.89,3.31-2.77,3.18-5.09,5.5l3.7.65Z"/><path class="cls-1" d="M309.8,446.19c-.61-.42-2.14-1.49-2.59-1.4l.48,1.55,2.1-.15Z"/><path class="cls-1" d="M277.41,458.97l3.04-.46c-.08-1.62-4.09-1.75-3.04.46Z"/><path class="cls-1" d="M302.73,474.39l.15-2.22c-1.79-.42-3.07.68-2.22,2.39.77-1.8.93.62,2.06-.17Z"/><path class="cls-1" d="M271.23,463c1.15,3.01-3.01.55-1.72,3.24.07-1.12,3.45-.66,1.72-3.24Z"/><path class="cls-1" d="M290.08,485.61c2.38,1.86,2-.99,3.75-1.39-1.12.79-4.53-.62-3.75,1.39Z"/><path class="cls-1" d="M264.83,478.81c-1.24-1.83-.23-2.4,1.11-2.77.07.8.47,1.79.23,2.41.66-2.65.99-2.47,1.73-4.32-2.3-.2-4.98.55-6.44-1.8.23,2.41.86,5.8,3.37,6.48Z"/><path class="cls-1" d="M287.11,488.3c1.61-.14,3.48,1.02,4.69-.11-1.14-1.08-2.9-2.55-4.22-1.1l-.98-2.49c-2.56-.44,2.59,2.33.51,3.7Z"/><path class="cls-1" d="M254.94,478.93l1.41.39c.27-2.91,2.97-3.65,1.89-6.92-.92.81-1.79,1.92-2.38,3.12-.59,1.2-.95,2.44-.92,3.4Z"/><path class="cls-1" d="M278.83,488.54l1.96,3.03c1.84-.76-.84-.88-.81-1.98.75.08,1.61-.15,1.53-.95-1.44,1.75-1.86-2.24-2.69-.11Z"/><path class="cls-1" d="M276.17,495.52l-1.02,2.7,3.95,1.96c1.45-2.81-1.26-1.86-2.93-4.66Z"/><path class="cls-1" d="M272.27,495.45l-.64-.37.41,6.52c.33-3.14.64-2.96.23-6.15Z"/><path class="cls-1" d="M222.07,507.21c.72,1.44,3.67,1.33,1.8.71-.54-1.25-4.1-.67-1.8-.71Z"/><path class="cls-1" d="M248.08,522.72c-1.56-.18-2.73,3.7-3.11,5.5.82-1.77,4.69-4.09,3.11-5.5Z"/><path class="cls-1" d="M244.8,528.95c.03-.15.09-.42.17-.73-.13.27-.19.5-.17.73Z"/><path class="cls-1" d="M206.22,578.93c-.07.15-.09.34,0,.61,0-.21,0-.4,0-.61Z"/><path class="cls-1" d="M206.53,577.21c1.03-.43,1.7-2.51.71-3.89-.52,1.68-1.08,3.06-1.01,5.61.32-.65,1.75-.5.31-1.72Z"/><path class="cls-1" d="M196.49,587.46c-.25-1.2.8-1.64-.51-2.43-.79-.12-.61,2.12.51,2.43Z"/><path class="cls-1" d="M112.9,623.95c-.37-.93-.22,0,.5,3.08.17-.34-.36-2.02-.5-3.08Z"/><path class="cls-1" d="M113.33,628.06l-.33-1.58c-.19-.78-.36-1.57-.53-2.38.26,1.36.55,2.68.85,3.97Z"/><path class="cls-1" d="M111.86,624.27c0-.25-.03-.99-.06-1.77.01.57,0,1.18.06,1.77Z"/><path class="cls-1" d="M111.79,622.24c0,.08,0,.18,0,.27,0-.08,0-.18,0-.27Z"/><path class="cls-1" d="M111.9,623.43l-.13-2.06c0,.18.02.54.03.87,0-.15.03.11.1,1.19Z"/><path class="cls-1" d="M111.68,623.81c.06,2.08.17,4.08.31,6.01.05-1.7-.06-2.35-.14-3.52-.09-1.14-.13-2.86-.22-6.21.03,1.2.05,2.44.04,3.72Z"/><path class="cls-1" d="M111.28,626.35c0-1.07-.17,1.29-.37,2.99-.19,1.68-.37,2.66-.02-1.85-.06.44-.11.83-.13.99-.13,1.04-.22,1.78-.28,2.29-.14,1.27-.22,1.98-.27,2.4-.22,2.29-.33,3.4-.51,5.26-.33,3.52-.62,6.85-1.24,7.28.08,1.67.27,1.66.48.67.02-.1.06-.3.09-.51.03-.22.06-.44.09-.64.07-.52.13-.99.19-1.42.14-1.21.26-2.22.37-3.17.21-1.91.39-3.57.69-6.4.19-1.57.29-2.23.36-1.22.04-2.48.18-3.68.28-4.44.11-.77.21-1.17.28-2.23Z"/><path class="cls-1" d="M110.83,640.22c.18-4.21-.12-4.03-.41-.91.04.14.03,1.62.09,2.41.05.8.15.91.32-1.5Z"/><path class="cls-1" d="M110.22,630.89c.1-1.26.21-2.48.33-3.68l-.39,2.74.06.94Z"/><path class="cls-1" d="M110.08,628.14c.29-1.49.57-3.03.83-4.61-.3,1.87-.35,1.2-.83,4.61Z"/><path class="cls-1" d="M110.9,621.77c.36-1.34-2.26,7.41-1.51,5.98l.05-.48c.16-.61.51-2.01.77-3.04.29-1.11.57-2.1.69-2.46Z"/><path class="cls-1" d="M104.63,629.58c.05.49.66.14,1.38-1.19-.34.14-.7.24-1.06.31l-.32.88Z"/><path class="cls-1" d="M95.66,643.66c-.99,2.12-.73,2.65-.27,2.91.47.27,1.12.25,1.05,1.67-.23-2.51.16-2.77-.78-4.58Z"/><path class="cls-1" d="M107.64,624.09c1.04-1.14.46-.15.36.22,1.28-1.99.88-1.67-.36-.22Z"/><path class="cls-1" d="M106.46,624.14c.98-1.22,1.46-1.4,2.14-2.21,1.09-1.38.93-1.24-.7-.36-1.19.86-4.31,3.49-5.82,4.2.72.27,2.36-.56,3.32-1.11.97-.52,1.27-.72-.46,1.41,1.57-1.31,3.08-2.78,4.53-4.43.63-1.01-3.13,3.21-3.01,2.5Z"/><path class="cls-1" d="M99.26,636.47c.33-.97.68-1.91,1.03-2.81-1.28,1.96-1.79,1.52-2.46,1.49-1.53,1.98-1.23,2.32-.54,2.12.7-.18,1.78-.95,1.96-.8Z"/><polygon class="cls-1" points="101.52 618 99.44 615.12 99.6 616.24 101.52 618"/><polygon class="cls-1" points="102.05 615.48 103.16 614.98 100.17 613.28 102.05 615.48"/><polygon class="cls-1" points="102.18 611.62 102.13 612.06 103.82 613.59 102.18 611.62"/><path class="cls-1" d="M100.52,604.64l-1.45,1.19c.73.65-.55,2.97,1.65,1.99-1.02-.43-1.36-2.22-.2-3.18Z"/><path class="cls-1" d="M49.99,597.84c1.32.18,2.17-.52,3.04-1.23l-3.18.11c.24.22.72.66.14,1.12Z"/><path class="cls-1" d="M53.21,592.28l-4.11-1.21c.5,2.93,3.19,2.39,4.56,4.6.66-1.39-2.18-1.97-1.76-3.57l1.31.18Z"/><path class="cls-1" d="M38.36,543.61c2.17-.54,1.68-.98,3.68.3-2.18-1.96-2.48-4.21-3.8-6.88-1.14.95-4.18-.3-3.22.56l2.38,2.65-1.6.05c-.81,2.76,2.85.58,2.56,3.31Z"/><path class="cls-1" d="M15.22,410.76c1.12-.08,1.9-.79,2.68-1.49-1.8-1.44-2.33,1.79-2.68,1.49Z"/></g></g></svg>