<?xml version="1.0" encoding="UTF-8"?><svg id="Layer_2" xmlns="http://www.w3.org/2000/svg" viewBox="0 0 1198.78 757.93"><defs><style>.cls-1{fill:#231f20;stroke-width:0px;}</style></defs><g id="Layer_1-2"><g id="Right-down"><path class="cls-1" d="M878.4,647.26c2.42,2.46,1.03-.48,1.1-2.92l-1.1,2.92Z"/><path class="cls-1" d="M879.49,644.34l.78-2.07c-.56.48-.75,1.23-.78,2.07Z"/><path class="cls-1" d="M884.71,624.64c.85,2.48.18,4.99-.27,7.29-.45,2.3-.72,4.41.73,6.15,2.81-4.33,3.24-11.74-.46-13.43Z"/><polygon class="cls-1" points="881.45 631.23 883.2 632.1 881 627.63 881.45 631.23"/><polygon class="cls-1" points="879.27 633.83 880.05 633.37 879.22 626.81 879.27 633.83"/><path class="cls-1" d="M888.04,609.1l-.07,4.72c-3.09,4.05-3.05-3.28-5.13-.58-.71,5.77,5.04,2.65,3.28,9.81,2.46-.26,1.46-11.65,5.06-10.03,1.96-6.02-2.18-.56-3.14-3.92Z"/><path class="cls-1" d="M825.26,341.4c.06-.28.04-.49.07-.73-.27.39-.43.75-.07.73Z"/><path class="cls-1" d="M788.54,276.71c-.21-1.07-.55-2.06-.95-2.98-.17.46-.27.98-.24,1.56l1.19,1.42Z"/><path class="cls-1" d="M848.93,382.61c-.04,1.16.01,2.19.11,3.11.32-.7.39-1.66-.11-3.11Z"/><path class="cls-1" d="M528.08,39.12c.26-.19.52-.47.72-.92-.02-.03-.07-.08-.11-.13l-1.12.69.51.35Z"/><path class="cls-1" d="M735.44,213.31c-.79-.85-1.59-1.66-2.44-2.26,1.2,1.5,1.92,2.1,2.44,2.26Z"/><path class="cls-1" d="M857.37,408.53c-.09-.41-.18-.76-.28-1.1-.04.39-.05.9,0,1.46l.29-.3s0-.02-.01-.05Z"/><path class="cls-1" d="M796.31,300.1c-.26-.99-.54-1.87-.93-2.53.18.94.53,1.76.93,2.53Z"/><path class="cls-1" d="M894.96,537.26c.3-1.35.02-2.45-.46-3.43-.53.87-.6,1.96.46,3.43Z"/><path class="cls-1" d="M892.96,509.43c.02.05.03.11.03.16.44-.2.34-.27-.03-.16Z"/><path class="cls-1" d="M891.5,491.66c.06.1.09.2.13.3.3-.24.35-.36-.13-.3Z"/><path class="cls-1" d="M894.49,533.84c1.41-2.36,6.18-3.29.81-6.03l-.68.63c1.12-1.85-.98-4.39-1.34-6.44-.49.24-.87.51-1.22.82.04,1.04-.07,2.42-.34,4.55-1.01,2.56,1.56,4.07,2.78,6.47Z"/><path class="cls-1" d="M826.27,341.27c-.79.62.39,2.06,0,0h0Z"/><path class="cls-1" d="M838.74,361.12c-.21-.73-.43-1.45-.69-2.19.09.75.18,1.49.69,2.19Z"/><path class="cls-1" d="M862.55,445.02c.05-.16.06-.29.11-.45-.56,0-.41.3-.11.45Z"/><path class="cls-1" d="M837.32,356.97c.28.65.5,1.31.73,1.97-.07-.67-.18-1.35-.73-1.97Z"/><path class="cls-1" d="M859.14,418.86c.02-.14.06-.28.04-.38-.05.09-.06.24-.04.38Z"/><path class="cls-1" d="M159.28,30.76c1.61-1.05,3.11-.11,4.91-.31,2.56-4.6-7.72,2.64-3.35-2.19-1.65.6-2.8,1.5-3.84,2.39l3.48,2.25c2.81-2.35-2.55-.27-1.19-2.15Z"/><path class="cls-1" d="M508.4,26.01l.68.48c-.12-1.58.49-1.9-2.22-3.44-3.08,1.56-.14,5.87-5.1,7.18.89-.03,2.1.4,3.19,1.01-1.22-2.43,1.07-4.03,3.46-5.24Z"/><path class="cls-1" d="M504.94,31.25c.04.06.05.12.08.2.1.35.24.66.41.95.61.18,1.18.45,1.6.8-.31-.69-1.11-1.4-2.09-1.94Z"/><path class="cls-1" d="M218.77,14.17c.77-.06,1.46-.11,2.09-.16-1.13-.39-1.72-.24-2.09.16Z"/><path class="cls-1" d="M771.01,190.55c.83.47,1.68.91,2.41,1.23-1.02-.93-1.77-1.2-2.41-1.23Z"/><path class="cls-1" d="M548.48,42.39c.55.49,1.15.89,1.83,1.27.43.12.81.19,1.32.35l-3.15-1.62Z"/><path class="cls-1" d="M406.09,42.76c1.77-3.55-1.13.15-3.83-2.22l-2.84,1.81c1.2.37,2.38.45,3.51.42,1.12,0,2.19-.05,3.16-.01Z"/><path class="cls-1" d="M156.72,30.49c.04.11.08.2.09.33.06-.06.1-.09.18-.16l-.27-.17Z"/><path class="cls-1" d="M326.7,42.4c-.47-.18-.88-.32-1.32-.45.27.2.69.37,1.32.45Z"/><path class="cls-1" d="M520.58,37.54c3.41,1.11,6.84,2.18,10.18,3.48l-2.68-1.9c-1.97,1.26-5.4-3.27-7.5-1.58Z"/><path class="cls-1" d="M448.94,50.62l.5,2.39c2.69-.74,5.36-.75,7.98-.42,1.31.17,2.61.41,3.89.7,1.27.35,2.53.7,3.78,1.04,5,1.38,9.75,2.46,14.48.02,5.08,5.33,7.4,4.17,9.73,2.8,2.3-1.35,4.57-2.82,9.12,2.05l-.07-1.19c2.25.62,4.45,1.48,6.67,2.24,2.22.79,4.44,1.57,6.67,2.36,2.22.8,4.45,1.6,6.69,2.4,2.2.89,4.4,1.79,6.6,2.68,4.39,1.82,8.82,3.54,13.17,5.43,4.32,1.96,8.64,3.89,12.95,5.78,17.1,7.89,33.78,15.65,49.81,22.51l-.83,1.36c23.74,14.61,46.56,29.86,68.16,46.87,21.55,17,41.89,35.7,59.76,56.94,4.47,2.97,5.08-1.73,9.36.54,1.17,1.58,4.2,4.83,2.72,6.11-3.28-2.18-3.22.56-4.64.08,1.06,1.16,2.07,2.5,3.08,3.9,1.01,1.41,2.03,2.85,3,4.32,1.98,2.9,4.12,5.54,6.79,6.99l-.93-5.25c2.19,1.05,3.76,4.19,4.88,5.82-1.54.14-1.95,4.08-3.49,3.12,6.19,2.65,6.93,5.02,7.24,7.35.3,2.36.06,4.78,3.99,8.04,1.38-.39,3.1-.21,5.04.35,1.96.54,4.05,1.53,6.2,2.72,4.33,2.38,8.97,5.57,12.92,7.98.44,1.46.87,2.93,1.23,4.43-1.52-2.49-2.39-1.89-3.25-1.5-.88.4-1.83.64-3.74-2.4.52,1.45,1.22,2.75,2.02,3.96.81,1.2,1.62,2.38,2.5,3.5,1.74,2.26,3.53,4.45,4.66,7.08.56-1.64,2.21-2.34,3.94-.72,1.21,3.37-.88,4.99.92,8.54-1.11-.86-2.32-1.66-3.48-2.48-.3,3.25,3.07,3.87,4.58,5.83-1.54,1.83,1.04,7.15-1.65,7.49,2.65,1.53,3.84,2.93,4.93,4.44.55.75,1.07,1.54,1.74,2.38.65.85,1.42,1.79,2.52,2.83-.7-6.42,3.31-.06,4.65-1.53-1.32-1.86-2.6-3.73-4.02-5.52.88,2.24,1.15,3.23,1.07,3.46-.07.23-.47-.3-1.1-1.03-1.28-1.44-3.35-3.68-4.85-2.43-.69-4.75,8.57,2.25,4.3-3.98,1.55,1.71,2.67,3.15,3.61,4.45.92,1.31,1.59,2.51,2.34,3.67,1.47,2.34,3.09,4.63,6.66,7.99-3.25-4.62,2.71-.2,2.35-3.41,3.46,6.25-.36,2.19-1.53,5.26.94,1.68,1.11,3.08,1.53,4.3.4,1.23,1.08,2.28,3.12,3.25,1.68,6.15-2.99.43-3.02,3.96-.84-.23-1.55-1.4-2.24-2.96-.68-1.56-1.37-3.49-2.24-5.19-1.7-3.43-3.81-6.07-7.15-3.37-1.59-2.8-6.23-4.75-8.25-8.88.95,4.08,1.14,10.44,5.15,13.92l4.34-1.96c1.85,3.31,5.17,2.51,5.96,5.19-1.86-.7-2.51,2.56-.84,5.14.23-1.08-.44-2.11.45-2.18,2.77,4.94,6.03,4.25,9.79,10-1.32-5.58-.54-7.23-.98-12.9,3.61-.18,2.06,3.15,3.77,5.78-.61-.23-.97-.77-1.17.34l2.89,2.3c1.75,6.97-4.73,1.25-3.71,7.14-.95,4.79,3.61,4.36,3.39,7.8.2-.31.41-.63.53-.89.22.65.34,1.12.4,1.49.06-.05.11-.1.19-.14,1.93,3.21,3.28,6.96,6,6.97-.45.4-.02,1.11.61,1.84.63.73,1.52,1.47,2.1,1.89,1.68,1.55,6.26,5.14,3.68,9.49-.06-.06-.06-.15-.11-.21,1.26,4.51,1.42,8.31-.21,7.85l1.55,7.38-3.31.34c3.07,6.08,4.63,4.81,9.35,8.15-.05,2.6.81,5.84,2.04,8.75,1.22,2.91,2.76,5.52,3.82,6.89.04.55.27,1.34.84,2.59l.36-3.09c.73,2.57,1.46,3.58,2.14,4.37.69.79,1.31,1.36,1.77,3.07.1-.79.25-.94.28,1.1.1.59.22,1.24.3,2.03-.38-.08-.54-.86-.58-1.67l-.87.92c-2.19,5.05,3.61,5.81,3.65,10.55-.23-.39-.64-1.04-.74-1.5-.17,2.72-3.61,7.38-.67,7.73-.21.66.54,1.4,1.41,2.09l-.05,1.95c-.03-.79,0-1.41.06-1.93,1.17.92,2.54,1.74,1.9,2.04l.93,6.53c-.17,1.32.6,2.87,1.36,4.1l-1.06,1.37c.74,2.28-.04,2.47-.46,2.27-1.45,4.54-.3,7.53,1,10.62,1.27,3.08,2.71,6.26,1.49,11,2.47,1.31,2.91-2.52,4-3.01,2,1.07,4.24,5.92,5.87,8.29-1.22,2.24-2.04,6.5-3.14,10-1.06,3.51-2.63,6.28-4.94,5.6.5,7.32,2.47-2.63,4.42.83l-.08.86c.22-2.6,1.53-4.78,2.98-6.44,1.13-.44,2.2.93,2.77,2.7.6,1.77.85,3.91.62,4.95l-3.57-.98c1.98,6.65,6.94,4.63,10.85,8.56-.71,5.65-4.18,2.79-7.1,4.26.54,1.87.95,3.76,1.38,5.65l-2.57.23c.97,3.64,3.43,4.33,2.82,9.56-2.71-3.53-1.8,7.86-5.46,2.95-.66,2.88,4.42,3.41,1.05,5.06,1.41.91,1.73.26,1.8-.82.03-1.07-.22-2.56.16-3.3,1.93-.71,2.52.83,2.79,2.97.2,2.15.04,4.89.62,6.59-2.03.38-2.49-2.18-3.7,1.91,1.58.76,2.88,3.3,1.07,5.65,2.56-.08.71,4.57.6,6.86.45-2.58,2.17-6.36,4.47-4.73,1.1,1.99,1.74,3.73,1.35,8.36l1.21-3.2c3.77,4.02-2.75,6.7-1.56,12.17-1.54-2.32-1.54-3.77-3.42-5.77,1.2,2.57,3.07,7.49,4.26,11.57-1.23,1.52-2.6,3.03-3.9,4.53,1.86.63-.39,5.17,2.18,5.27-1.97,5.66-2.9-4.74-4.76-5.34-2.01,7.06,4.04,5.91-.19,12.59l-2.3-2.4c-.28,2.25.93,6.9-.32,7.11.88.06.59-1.11.65-2.53,1.27.43,2.11,1.31,2.72,2.4.57,1.08.92,2.36,1.28,3.58.72,2.43,1.49,4.59,4.18,4.37l.61-3.16c.62,4.95,3.92,8.79,1.73,12.4-1.95,2.73-3.42-2.39-4.65-4.21-.36,2.28,1.01,3.34,2.36,4.53.67.59,1.34,1.22,1.77,2.04.44.82.65,1.83.33,3.2.62-1.4,1.36-1.92,2.1-1.85.75.07,1.51.73,2.07,1.68.7-3.18,2.23-9.84-.08-8.85l-.61,1.12c-1.35-.42-1.71-2.22-2.32-3.14.37-4.38,2.57-1.84,3.67-2.64,1.46-7.26-5.26-1.01-4.53-7.65l1.1-.8c-1.22-3.3-1.21-8.25-4.43-9.27,3.57-2.76-1.04-7.54,1.14-10.64,3.79-.21,3.54,2.62,2.84,5.98-.7,3.36-1.85,7.22.13,9.23,1.7-3.42,3.52,2.2,5.17,3.79l-2.78-11.29c1.07-.83,4.98-3.98,2.31-6.09l-.21.87c-.66-4.44-3.83-3.31-2.77-7.09.69-.58,1.89.61,2.4.91.7-3.51-1.71-2.95-2.39-5.3.69-3.51,3.09,1.78,3.94-1.15-2.91-4.09.71-6.46.54-10.03-1.07.39-1.97-.29-2.78-1.4-.85-1.11-1.62-2.65-2.37-4-1.5-2.7-2.9-4.6-4.65-.78l-3.24-8.23c2.13-2.71,6.22,5.51,9.74,3.07l.09,6.74c2.65-.62,1.64-4.15.7-8.07-.96-3.93-1.77-8.24,1.03-10.65-.05-3.63-.72-2.67,1.4-9.71l-4.66,1.53c.82-3.6,3.32-4.97,4.18-5.21-.47-2.06-.49-3.94-.43-5.9.74.44,1.43,1.11,1.78,2.35,2.44-2.93,1.37-3.63-.15-4.42-1.36-1.33-1.45-3.53-1.67-5.75l1.99,1.81c-.55-1.32-1.26-2.93-2.13-2.98-.12-.92-.33-1.78-.72-2.58-.75.69-3.35,2.47-4.21,5.75.89-8.36-.72-14.62,1.98-22.16,1.4.06,3.55,2.75,3.59,1.84.14-3.63-2.83-7.08-4.82-6.44-.26-.77-.4-1.37-.5-1.9,1.07-.85,2.19-1.88,2.14-3.58.37-.45.64-1.15.61-2.38-3.83-.55-3.33-7.53-5.28-8.67-.08,1.64.32,3.55.83,5.48-3.02-2.36-6.34-4.29-4.76-6.81,3.36,4.73,2.79-6.27,5.34,1.35,3.64-6.42-3.93-2.23-3.39-8.36l1.12-4.15c2.8,0,2.53,5.84,3.38,4.75l-.85-2.56c1.27,1.1,2.05,4.21,3.04,7.73.97,3.53,2.25,7.44,4.25,10.27-.17-4.22-.55-8.41-.82-12.63-.78-1.87-1.46-3.81-2.08-5.81-.62-2-1.13-4.06-1.75-6.12-1.17-4.13-2.18-8.38-3.26-12.53-.55-2.08-1.09-4.13-1.71-6.13-.67-1.98-1.39-3.91-2.18-5.76-1.57-3.7-3.42-7.07-5.74-9.87.06.18.14.35.22.53-.32-.15-.84-.12-1.9-.01l.5-.77-2.68-1.96c1.6-3.58.41-9.07.94-14.26q-.73,3.38-2.61,4.27c-2.81.25-4.06.17-4.4-4.35,1.84-.65,2.62,1.99,3.12-1.61-.41,1.91-2.17.89-2.98-.87.22-1.38.13-3.1.11-4.53,0-1.43.17-2.6,1.09-2.95.89.92.56,2.02.55,2.85.88.93.1-5.01,2.77-2.27l-2.04-4.11c.66-3.04,3.02.83,3.67-.51-1.89-3.37-4.23-5.59-6.52-7.7-2.32-2.1-4.48-4.15-6.39-7.05,1.09-.07,5.2-1.55,3.99-1.17-.71-5.39-8.56-8.77-11.06-14.13,1.52.32,1.85,2.59,3.1,4.03-.65-2.19-1.28-4.34-1.95-6.43-.73-2.07-1.44-4.1-2.14-6.1-1.41-4-2.79-7.89-4.09-11.79-.62-1.96-1.37-3.86-2.02-5.8-.67-1.94-1.31-3.89-1.92-5.88-.61-1.99-1.19-4-1.74-6.07-.53-2.08-1.06-4.19-1.6-6.33l-6.07-1.91.55-5.35c-.74-2.17-1.53-4.24-2.36-6.24-.42-1-.85-1.97-1.28-2.93-.45-.95-.95-1.87-1.43-2.78-1.96-3.64-4.06-7.02-6.26-10.32-1.1-1.65-2.23-3.27-3.37-4.89-1.18-1.6-2.42-3.16-3.65-4.76-2.48-3.18-5.01-6.43-7.57-9.89-3.07-4.39.89-4.41.55-7.22-3.11-5.05-6.12-7.46-9.23-9.69-1.56-1.11-3.13-2.18-4.78-3.5-1.7-1.29-3.45-2.83-5.31-4.94,2.02.43,6.73.32,4.01-3.71-1.58.03-3.57.76-4.73-2.18l2.03.44c-.05-3.44-3.13-4.53-5.94-9.67-6.48-7.97-14.89-13.8-24.19-16.81-5.47-7.1,4.27-2.43,3.92-4.34,2.88,5.9,3.48,2.85,5.57,2.92-3.18-1.76-6.41-4.35-5.11-7.77-1.61-1.73-2.73-3.03-4.04-4.15-.65-.56-1.35-1.08-2.17-1.6-.83-.5-1.82-.97-3.01-1.47,2.41.99,2.45,3.64-.1,2.98-1.77-3.57-9.3-9.92-6.02-12.26-1.98-1.97-3.92-4.05-5.97-6.06-2.05-2.01-4.13-4.05-6.23-6.1-4.18-4.12-8.32-8.43-12.78-12.49-2.19-2.07-4.4-4.14-6.61-6.22-2.21-2.08-4.4-4.19-6.72-6.14-4.59-3.98-9.18-7.94-13.79-11.79-2.24-.45-1.76.18-1.06.89.71.71,1.58,1.56.28,1.39-6.27-1.57-2.76-3.96-7.77-5.2l2.88-.51c-5.33-4.57-13.54-6.09-20.23-8.28,2.38-1.35-3.27-4.91,2.14-2.82-2.89-1.58.31-12.99-3.14-12.67-.97,3.56-1.96,7.11-2.96,10.64-.74.72-4.11-2.49-4.13-1.66-.58-1.67-1.22-3.55-1.98-5.09-.76-1.53-1.58-2.79-2.42-3.34.33-1.35,1.46-1.22,2.81-.55.67.34,1.39.81,2.09,1.29.67.52,1.33,1.03,1.88,1.45,1.41-1.65-.05-3.65-1.28-5.21-1.21-1.58-2.08-2.89.74-3.43-5.41-2.72-.55,2.32-4.44,1.69l-3.83-3.65,2.54,3.44c-4.36-1.31-7.39.67-10.88-4.55l-3.64.16-3.68.27c1.3-3.24-3.38-2.78-5.58-5.04l2.79-.89c-3.56-2.01-4.61-3.34-6.17-5.75,3.52-1.42,2.81,2.54,5.13.59l-3.36-3.21c-.98,1.7-4.2,1.55-2.04,4.23-2.72.51-4.9,1.08-7.56.95-2.67-.12-5.76-1.02-10.21-3.62-2.52-5.18,5.84-.2,5.72-4.02-4.43-3.22-8.37-2.9-11.83-2.16-3.47.74-6.53,2.02-9.22.45-6.55-4.71-7.46-1.81-14.8-5.05,3.3-1.03-4.13-4.48-4.61-7.07l3.9-.86c-2.55-.35-4.36-2.12-3.02-3.35-.42,1.5-3.12,1.09-6.43.2-1.65-.45-3.46-1.01-5.21-1.52-1.76-.49-3.48-.85-4.91-1.03l-.09,2.79c-4.38-.78-10.55-1.42-14.57-3.72-3.31-.88-4.86-.48-6.26.11-1.41.62-2.72,1.54-5.65,2.04-1.92-3.18-.73-5.73,1.14-8.12,1.29,1.87,4.48,2.14,7.04,3.89,2.25.14,4.39.24,6.53.18,2.14-.04,4.25-.14,6.32-.14,4.14.03,8.2.39,11.97,2.68,2.97-2.16,1.56-2.62-1.01-2.93-2.58-.26-6.27-.41-7.84-2.22.26-.31.59-.31.91-.25-.35-.15-.65-.3-.92-.56,3.21.42,8.36,1.35,10.42-1.32-5.19-1.35-5.96,4.48-11.04-.45-5.15-.1-7.04-6.26-9.67-7.71-3.9,1.17-5.74,5.93-12.88,2.42l4.45-2.23c-8.49-3.02-5.68,3.56-13.44.71,2.61,1.35-3.72,2.42,1.44,4.3-3.12.84-8.94-.42-12.88-2.73-1.27.19-.58,1.09-1.14,2.19,3.94,3.8,8.15-.1,10.88,4.54l4.43-2.53c3.89,2.82,3.29,5.89.19,6.42,1.26.27,2.49.13,3.15,1.07-1.15,5.73-4.47-3.73-7.51.41l3.14.65c.09,4.01-8.01.64-11.87-.67-3.89-3.02-7.77-4.86-7.31-7.57l6.33.69c-2.49-3.03-8.03-1.09-11.47-2.25-.13-.42-.39-.81-.75-1.1.12.28.15.54.08.8-.71-.33-1.29-.82-1.68-1.6-3.07-.94-8.03-.51-10.69-2.11l-.24,2.45.73-1.22c2.81.83,6.25,3.27,3.65,4.47-6.75,0-6.87-4.88-7.9-7.33,2.38-3.24,6.24,1.66,9.81,1.27-1.03-4.07-6.42-2.07-12.49-6.16,3.61-3.24,7.71,2.07,10.1-1.17-2.62-1.04-4.45-.95-6.31-.91-.93.02-1.86.03-2.9-.13-1.04-.14-2.2-.39-3.57-.96.58-.83,2.28-.99,3.85-1.23,1.57-.19,3.02-.48,3.12-1.7-1.13-.68-2.26-1.41-3.41-2.04,9.12,2.05-.42-5.32,6.92-4.46-1.48-1.24-2.85-.75-4.37-.4-1.52.37-3.19.63-5.31-1.15.96,2.01,4.02,5.97-.89,6.51l-4.89-2.29c-1.75-2.38,6.34-3.01,3.33-5.37l-5.75.15c-.07,1.22,2.4,2.38.42,3.64-2.86-1.96-6.09,3.43-10.07,4.39-2.9-.63-5.17-1.28-5.95-2.86-4.02,1.09-8.33,1.19-12.55,1.29-1.06.03-2.1.03-3.15.1-1.04.08-2.07.17-3.08.29-2.02.24-3.97.6-5.78,1.2,4.96-1.75.42-4.11-2.13-6.3,5.43.25,6.03-3.49,6.01-5.94-3.37-.06-6.05,3.49-4.57,4.98-5.26-2.3-4.11,2.07-8.58-1.13-2.96-1.74,2.02-3.49,1.12-5.05-2.97-.52-3.52.65-4.11,1.63-.59,1-1.24,1.91-4.41,1.14.41-.46,1.02-.56.58-1.31-3.41-1.15-7.36.23-8.28,2.02-1.61-2.64-4.25-2.78-6.32-2.84-2.07-.05-3.6.06-3.04-2.31-8.58.73,1.06,2.69-.75,4.25-3.61,1.89-9.84-.26-11.8-1.15,2.08.03,4.08-1.15,6.04-.28l-1.56-3.44c-5.21-1.53-7.01.24-8.72,1.96-.86.87-1.7,1.68-2.95,2.12-1.25.45-2.91.48-5.42-.31,5.3-1.59,1.83-2.47,4.54-4.74-1.62.79-9.58-.37-4.83,2.31-3.82-.39-6.46-1.06-9.09-1.74-1.72.59-3.5,1.09-5.1,1.71-1.6.64-3.02,1.45-4.01,2.54-5.32-.3-9.3-2.63-11.89-4.06-5.62,1.17-11.03,1.08-16.55.91-2.76-.08-5.53-.15-8.36,0-.71.04-1.41.08-2.12.15-.71.09-1.42.2-2.14.32-1.43.25-2.87.59-4.33,1.03l.89.13c-9.21.13,4.37,4.08-5.12,4.74.93-4.17-5.92-2.28-9.21-4.17-5.95-.44-10.92.96-15.76,2.19-2.42.64-4.82,1.19-7.28,1.61-2.47.44-5.02.64-7.8.37-.04-.86.5-1.97,2.56-2.4-8.38.04-14.9,1.72-22.26,3.03l.23-.55c-3.1-.24-6.06-.05-8.93.43-2.87.49-5.67,1.2-8.4,2.24-5.49,1.99-10.89,4.51-16.8,6.38.85-.73.74-2.28,1.37-2.98-.79.07-1.64.15-2.52.25-.88.13-1.79.29-2.72.48-1.86.37-3.78.84-5.62,1.44-3.66,1.2-6.94,2.9-8.55,5.26-4.14-.99-5.23-.27-6.57.47-1.34.75-2.92,1.59-8.07,1.16-.74-.52.71-.92,1.27-1.26-4.91.14-8.01,1.47-12.7,2.53-4.58,2.98-7.03,5.93-9.83,8.44-2.79,2.54-5.98,4.5-11.89,6.06-1.29-2.47.34-3.48,2.12-4.4,1.77-.95,3.75-1.65,3.11-3.78-1.98,1.7-3.53,3.57-7.14,3.58,1.11-2.77-.08-1.44.5-3.84-2.96-.4-7.61,9.22-7.73,8.71.27,1.05,1.31,1.26,3.49.23-.7,2.11-3.44,3.27-6.64,4.34-.8.26-1.63.53-2.46.8-.82.29-1.64.6-2.44.93-1.6.65-3.11,1.38-4.32,2.29,1.8-.69,7.71-2.11,6.67,1.21-7.66,2.09-7.91,8.02-11.95,12.21-7.61.61,2.9-6.37.1-9.38-1.68-.81-5.66-2.44-3.47-5.07-6.42,1.83-9.25,7.03-14.13,10.33l-.33-1.05c-1.79,1-3.49,2.26-5.14,3.59-1.64,1.36-3.27,2.71-4.81,4.14-3.12,2.79-6.22,5.19-9.75,5.83l3.79-.61c-.86,1.21-4.63,2.87-5.53,5.89-.66-1.72-6.14-.64-4.96-2.98-.18,3.4-3.68,6.56-7.27,9.64-3.58,3.1-7.22,6.17-7.47,9.56-2.57-.08-2.38-3.02-2.53-4.51,4.67-2.18,6.75-2.05,7.87-5.42-3.62,2.23-7.09,2.54-7.23,1.07-.93,2.6-3.28,5.65-5.4,8.53-2.12,2.88-3.99,5.6-3.89,7.69-3.58.14-6.62.93-7.39-2.18-2.5,2.14-2.99,3.61-2.65,4.52.35.93,1.59,1.42,2.74,1.88,2.31.93,4.3,1.8-1.63,5.96-7.1,1.41,3.05-7.02-5.03-2.54l1.12-1.37c-9.94-2.54-.62,7.26-6.84,11.32-3.34-2.85,2.49-5.47-3.55-4.94-1.27,1.19-2.08,2.59-2.73,4-.65,1.41-1.12,2.84-1.63,4.2-1.03,2.73-2.21,5.2-5.33,6.75l-.26-2.08c-.82.74-1.88,1.57-3.08,2.45-1.19.89-2.53,1.79-3.79,2.8-2.55,1.97-5.11,3.94-6.67,5.47-.7-.51-.13-.83.36-1.54-7.25,3.99-1.18,3.82-8.17,5.86l-.1,2.78c3.52-1.04,9.74-3.55,11.4-8.11-1.64,4.54,8.42-.05,9.11,4.11l-.29-1.66c1.51-.28,3.05-.58,4.58-.96,1.52-.39,3.03-.85,4.52-1.38,2.99-1.06,5.94-2.37,8.87-3.83,1.48-.71,2.91-1.53,4.42-2.25,1.5-.74,3.01-1.49,4.52-2.24,3.02-1.52,6.06-3.06,9.13-4.51,2.19-4.29,5.54-5.82,8.96-7.33,3.43-1.49,6.99-2.87,10.02-6.62-1.41-4.99.94-1.73,7.17-6.58-3.26,2.64,1.52,3.49,4.09,2.75.66-1.88,2.02-3.23,3.4-4.57,1.11.35,4.24.07,7.37-.65,3.11-.77,6.12-2.21,6.9-4.55,4.92-.83-.23,1.93-.64,3.32,2.89,1.34,2.44-3.58,4.63-2.81,0,0,.18.51-.13.97,6.21-3.68,10.76-4.24,17.72-6.99-1.54-4.64,5.8-4.97,8.17-7.81-.34,1.87,4.62-.04,6.94-.05l2.24-4.95c1.22-2.22,2.72-2.29,4.4-2.25,1.68.03,3.6.29,5.68-1.44l-1.49-.35c2.99-2.73,13.32-3.73,17.67-2.55,3.67-2.56,7.27-4.68,10.81-6.47,1.77-.89,3.52-1.7,5.26-2.44,1.74-.73,3.5-1.28,5.24-1.83,3.47-1.07,6.9-1.9,10.31-2.58,1.71-.33,3.4-.66,5.11-.91,1.72-.22,3.44-.41,5.17-.59,6.87-.67,13.8-1.35,21.31-2.08,3.72-.41,7.55-.95,11.54-1.73,4-.73,8.2-1.52,12.6-2.72,2.06-1.89-2.17-2.09-.74-4.59,3.56-1.26,4.43-1.22,7.75-1.93-3.17-.72-2.42.79-2.28-.62l-4.86,2.34c-.31-.31.22-.56-.39-1.15-1.64.77-3.47,2.12-5.72,2.29,2.9-1.85,3.12-5.55,7.73-5.05-.24.55-.78.81-1.86,1.34,3.63-.41,3.5-2.14,6.37-1.72,3.44.21,2.44-.71,3.13.75l10.56.32c2.23-2.52,5.1-3.03,7.6-2.86,2.51.24,4.65,1.12,5.51,1.22-.36,1.67-2.02,2.11-3.86,2.57-1.84.43-3.84,1.05-4.87,2.79l3.98,1.77-.13-2.59,5.33.08-.23.53c.49-1.07,1.01-2.14,2.46-1.42.27.33.87.97.3,1.19l3.57-1.86c-1.87,2.91,3.37.4,3.16,3.53,6.13-.03,9.9-1.24,13.53-2.28,3.63-.99,7.14-1.71,12.63.03-1.84-1.37,3.12-5.01,6.49-4.6,1.96.67,2.47,1.34,1.31,2.57l4.28-1.78c1.41,1.14,2.78,1.79,4.18,2.14,1.4.34,2.82.39,4.32.42,2.99,0,6.31-.38,10.29.4l-.4,1.36c1.46-.82,2.99-1.55,4.71-2.03,1.72-.48,3.62-.7,5.84-.36l-.84,2.69c5.34,2.06,4.23-5.58,10.19-3.68.07-2.92-3.69-4.52-4.22-7.31,1.37,3.01,7.82,3.63,6.39,1.48,6.09-1.02,4.19.19,4.67.91,1.21-.58,2.41-1.08,3.63-1.59,4.23.42,1.14,3.91-.49,5.48,4.09-2.88,8.26-.39,12.66.39l-1.9,1.19,5.8.9c3.98-1.96,9.36-1.52,14.14.15l-3.78,3.48c3.21,2.34,1.9-1.14,2.88-1.7,2.81-.66,4.45-.3,5.7.51,1.25.8,2.11,2.12,3.39,3.41,4.56-1.38,8.66.78,12.57,2.7,1.96.98,3.89,1.8,5.82,2.27,1.93.44,3.89.35,5.97-.74ZM863.86,442.57l.37-.93c1.07,1.68,1.92,2.58-.37.93ZM852.25,394.9c3.2,5.21.9,3.95.02,4.69-.74-5.86-2.83-8.58-3.23-13.87-.45,1.02-1.38,1.5-1.91,1.95-.48-1.99-.38-4.19,1.24-5.48,1.13.29,1.87,1.42,2.38,2.91.51,1.48.67,3.35.79,5.07.21,3.43.03,6.3.71,4.74ZM893.48,501.09c-.31-.18-.64-.39-.93-.63v-.03s.93.66.93.66ZM886.19,471.57c.76-.55,1.09-1.36,1.26-2.31-.93.71-1.69,1.38-1.26,2.31ZM878.33,411.73c1.18-1.77-.12-4.72-1.09-6.86.12,1.1.15,3.11,1.09,6.86ZM666.4,104.17c1.84.56,5.59,1.28,3.72-1.52-2.03.23-3.02-3.43-5.28-2.46-.1-.17-.1-.22-.15-.34.74,2.15,1.32,3.93,1.71,4.31ZM501.99,40.47c.73-1.44,2.46-2.77,1.96-4.14.13.07.31.17.45.25-.29-.63-.54-1.16-.11-1.4-1.3-.66-2.67-1.41-3.77-1.22-1.81,4.86-4.92,4.9,1.46,6.51Z"/><path class="cls-1" d="M565.09,39.41c-.69-.18-1.18-.42-1.62-.5.43.17.94.32,1.62.5Z"/><path class="cls-1" d="M500.81,34.05c-.21.28,1.3,1.21,3.14,2.29-.24-.72-1.08-1.48-3.14-2.29Z"/><path class="cls-1" d="M876.65,598.12l-.37-1.75-1.83,3.27c1.24,5.84,3.44,6.38,5.81,8.06-.42-1.35-.69-2.55-.84-3.69-.14-1.15-.15-2.24-.09-3.37.1-2.26.44-4.69.36-8.02l-3.04,5.5Z"/><path class="cls-1" d="M894,596.66c.73-.54,2.58-1.88,2.82-2.76l-1.48-1-1.34,3.76Z"/><path class="cls-1" d="M902.66,526.19l-1.16,5.75c1.44,1.75,3.6-4.98,1.16-5.75Z"/><path class="cls-1" d="M876.17,551.59l1.72,2.84c1.38-2.56,1.22-6.02-.67-6.56,1.02,3.41-1.04.86-1.05,3.71Z"/><path class="cls-1" d="M901.93,510.9c-3.22-1.51.93-5.81-2.07-6.71.97,1.42-1.04,6.69,2.07,6.71Z"/><path class="cls-1" d="M872.91,517.02c-2.79,1.91,0,4.55-.42,7.99-.22-2.82,2.56-7,.42-7.99Z"/><path class="cls-1" d="M890.03,481.7c2.27-.02,2.36,2.37,2.16,5.08-.78-.8-1.87-1.25-2.35-2.38,2.22,4.18,1.91,4.52,3.34,7.93,1.13-3.71,1.52-9.17,4.31-8.96-.59-.59-1.24-1.22-1.92-1.76-.7-.54-1.42-1-2.12-1.28-1.39-.56-2.66-.37-3.42,1.37Z"/><path class="cls-1" d="M871.93,508.87c-.64,2.91-2.55,4.76-2.12,8.12,1.49-.7,3.64-1.99,2.98-5.94l2.68,1.21c1.6-3.85-3.3,1.73-3.53-3.39Z"/><path class="cls-1" d="M893.45,464.66l-.9,1.97c2.68,3.8,2.48,9.26,6.07,11.13-.95-5-3.28-11.01-5.17-13.11Z"/><path class="cls-1" d="M875.23,494.46l-3.64-.12c-.04,4.01,1.17-.42,2.18.89-.38,1.19-.51,2.93.26,3.68-1.05-4.46,2.86-.61,1.2-4.45Z"/><path class="cls-1" d="M869.67,481.97l-2.3-4.8-3.29,4.48c2.27,5.65,2.26-.03,5.6.32Z"/><path class="cls-1" d="M871.09,475.42l.6-.67-6.43-6.71c2.89,4.12,2.6,4.45,5.83,7.38Z"/><path class="cls-1" d="M871.4,377.57c-.88-.18-1.39.99-1.56,1.9-.18.91-.04,1.57.48.34,1.53.44,1.33-6.1,1.07-2.24Z"/><path class="cls-1" d="M849.49,404.1c.47-2.41-3.75-8.55-5.68-11.17,1.81,3.29,3.83,12.26,5.68,11.17Z"/><path class="cls-1" d="M843.03,391.86c.16.21.45.61.78,1.07-.27-.51-.51-.86-.78-1.07Z"/><path class="cls-1" d="M781.61,278.26c-.22-.25-.48-.47-.84-.57.29.2.54.37.84.57Z"/><path class="cls-1" d="M784,280.39c.33,1.01,1.24,2.27,2.29,3.24,1.02.99,2.18,1.71,3.07,1.6-2.26-2.46-4.29-4.62-7.76-6.96.92,1.12.85,3.22,2.39,2.12Z"/><path class="cls-1" d="M768.61,255.2c1.67.72,2.44,2.75,3.38,1.46.07-1.1-3.1-2.9-3.38-1.46Z"/><path class="cls-1" d="M652.07,79.47c-2.14-2.4-4.01-2.85-4.51-.5,2.91,1.86,2.05-.31,4.51.5Z"/><polygon class="cls-1" points="643.91 77.33 644.14 76.17 643.3 73.65 643.91 77.33"/><path class="cls-1" d="M627.23,63.65c.32-.24.99-.31,1.61-.24-1.22-.31-2.27-.53-1.61.24Z"/><path class="cls-1" d="M629.45,63.58c-.18-.07-.41-.13-.61-.17.19.05.42.12.61.17Z"/><path class="cls-1" d="M630.33,64.88l.81-.93c-.39-.01-1.05-.2-1.69-.37.55.21,1.01.64.88,1.3Z"/><path class="cls-1" d="M621.78,60.22l1.92,4.96c4.54.55-3.38-3.85,2.06-5.05l-3.98.09Z"/><path class="cls-1" d="M608.79,54.38c-3.01-2.72-10.4-.34-10.6-4.96-5.4-1.47-5.54.35-5.84,2-.15.83-.34,1.62-1.23,1.94-.44.16-1.06.21-1.94.09-.88-.11-2.04-.34-3.53-.79,1.23.83,2.29,1.36,3.21,1.73.91.37,1.7.53,2.39.54,1.4.02,2.45-.55,3.46-1.13,2.03-1.16,3.92-2.36,8.15.97-3.45-4.5,3.95-.28,5.93-.39Z"/><path class="cls-1" d="M607.36,61.27c1.5-1.53-2.82-3.85-4.79-3.31,1.18.83,2.08,4.44,4.79,3.31Z"/><polygon class="cls-1" points="588.66 46.66 586.23 43.88 584.89 44.71 588.66 46.66"/><path class="cls-1" d="M577.34,40.78l3.93-.84c-1.36.41-5.78-1.74-3.93.84Z"/><path class="cls-1" d="M561.98,31.36c-2.6-1.88-7.13,2.2-.66,3.45l-1.3-.74c.67-.65-1.91-3.72,1.96-2.72Z"/><path class="cls-1" d="M520.54,26.09c1.97.72,4.54.77,4.46-.43l-5.83-.61,1.37,1.04Z"/><path class="cls-1" d="M517.5,39c.82,3.71,5.09,1.26,8.32,3.38-3.84-1.83-3.23-2.12-8.32-3.38Z"/><path class="cls-1" d="M515.58,19.68c1.88-.86,3.95.69,5.27,1.32-.14-2.01-4.1-2.7-5.27-1.32Z"/><path class="cls-1" d="M506.4,18.29c-1.48-1.77.89-1.68-.26-2.92-3.55-2.47-7.76-3.36-10.43-2.16.7,1.64,1.16,5.71-.85,6.91,6.46.47,11.28-4.61,13.08.73l3.38-2.1,3.38-1.99c-2.36-1.22-3.6-.49-4.66.36-1.06.84-1.94,1.8-3.63,1.18Z"/><path class="cls-1" d="M515.83,32.39l-2.71-2.83c.13,2-2.43,1.57-4.32,1.64-.31,4.31,5.08.87,7.02,1.2Z"/><path class="cls-1" d="M471.06,12.51l-1.83-.15-1.84-.08-3.68-.16,2.29.65c1.69-.11,3.39-.23,5.07-.25Z"/><polygon class="cls-1" points="466.72 10.29 466.77 9.06 460.85 10.27 466.72 10.29"/><polygon class="cls-1" points="459.43 7.52 460.25 7.86 464.7 7.58 459.43 7.52"/><path class="cls-1" d="M444.47,4.18l1.07,1.94c.95-.1,2.27.46,3.35.77,1.08.33,1.92.38,1.94-.84-1.71.47-5.48-.31-6.36-1.87Z"/><path class="cls-1" d="M391.3,43.96c1.29-1.1.63-2.18-.04-3.29l-2.12,2.9c.58-.12,1.74-.34,2.17.39Z"/><path class="cls-1" d="M383.38,38.52l-5.19,3.31c2.89.36,4.56-.19,6.15-.76,1.59-.58,3.1-1.29,5.65-1.39-2.09-1.21-5.22.98-7.89-.03l1.27-1.13Z"/><path class="cls-1" d="M281.77,40.77c.15-2.26-.96-1.8,2.61-3.78-4.97,2.13-9.45,2.36-15.3,3.6,1.22,1.23-2.76,4.3-.6,3.35l6.33-2.34-.75,1.65c4.84.97,2.63-2.92,7.71-2.49Z"/><path class="cls-1" d="M24.28,122.63c-.15-1.25-1.4-1.51-2.67-1.77-2.55,3.48,3.19,1.07,2.67,1.77Z"/><path class="cls-1" d="M1195.13,267.24c-.8-2.99-.91-.45-1.88.81l1.88-.81Z"/><path class="cls-1" d="M1193.24,268.05l-1.34.57c.58.13,1-.14,1.34-.57Z"/><path class="cls-1" d="M1182.02,274.91c.87-3.64,5.57-3.57,4.82-7.43-3.62.37-6.68,4.05-4.82,7.43Z"/><polygon class="cls-1" points="1186.89 273.72 1185.98 272.04 1185.84 275.97 1186.89 273.72"/><polygon class="cls-1" points="1189.42 273.84 1188.69 273.55 1186.78 277.66 1189.42 273.84"/><path class="cls-1" d="M1173.38,280.4l1.97-2.33c3.81.14.8,3.82,3.35,3.92,2.85-2.42-2.45-4.9,1.69-7.27-1.83-1.6-5.75,4.85-7.61,1.48-3.81,1.64,1.3,1.82.61,4.2Z"/><path class="cls-1" d="M1063.18,422.88c-.23.01-.35.07-.53.1.42.13.75.18.53-.1Z"/><path class="cls-1" d="M1035.86,463.07c-.71.31-1.29.71-1.8,1.15.43.07.87.07,1.29-.03l.5-1.11Z"/><path class="cls-1" d="M1077.29,394.9c.77-.26,1.41-.56,1.95-.87-.64-.07-1.3.12-1.95.87Z"/><path class="cls-1" d="M902.29,654.2c-.2-.21-.49-.44-.92-.66-.02.01-.07.03-.11.05l.74.89.3-.29Z"/><path class="cls-1" d="M1010.07,510.95c-.37.67-.69,1.35-.83,2.05.72-1.03.92-1.64.83-2.05Z"/><path class="cls-1" d="M1088.74,381.46c-.2.18-.35.36-.51.53.26-.08.58-.22.9-.42l-.36-.14s0,.01-.02.03Z"/><path class="cls-1" d="M1049.26,453.35c-.6.37-1.11.72-1.39,1.14.6-.3,1.03-.7,1.39-1.14Z"/><path class="cls-1" d="M1136.19,307.97c-.85.34-1.2,1.01-1.35,1.77.78.03,1.35-.37,1.35-1.77Z"/><path class="cls-1" d="M1123.65,320.64s.04-.06.06-.09c-.39-.25-.36-.15-.06.09Z"/><path class="cls-1" d="M1115.21,328.31c.02-.08.05-.14.08-.21-.32-.14-.42-.14-.08.21Z"/><path class="cls-1" d="M1134.84,309.74c-2.08-.06-5.71-3.23-3.46,1.91l.76.25c-1.65-.08-1.44,2.59-2.28,3.63.45.27.84.45,1.23.59.52-.42,1.25-.92,2.46-1.61,1.92-.32.93-2.86,1.28-4.77Z"/><path class="cls-1" d="M1062.54,422.13c.86.48,1.19-.75,0,0h0Z"/><path class="cls-1" d="M1069.08,408.07c-.37.33-.73.66-1.08,1.03.45-.24.9-.48,1.08-1.03Z"/><path class="cls-1" d="M1107.57,366.45c-.13.01-.21.05-.34.05.34.43.43.22.34-.05Z"/><path class="cls-1" d="M1067.09,410.12c.28-.36.6-.69.91-1.02-.41.2-.8.45-.91,1.02Z"/><path class="cls-1" d="M1094.01,377.11c-.09.03-.21.04-.26.08.09.01.18-.02.26-.08Z"/><path class="cls-1" d="M800.22,541.26c1.04.67.32,2.03.62,3.16,4.25-.06-2.88-4.14,1.7-3.07-.65-.87-1.52-1.29-2.39-1.65l-1.75,3.17c2.29.98.06-1.81,1.82-1.61Z"/><path class="cls-1" d="M892.66,659.65h.32c-1.21-1.01-1.52-1.47-2.43-1.38.71,1.27,1.78,2.43,2.87,3.63,1.08,1.21,2.17,2.45,2.69,4.54-.04-.6.27-1.03.71-1.3-1.83-.94-3.05-3.55-4.17-5.49Z"/><path class="cls-1" d="M896.82,665.14s.09.05.15.09c.27.17.5.29.73.37.13-.27.34-.46.61-.52-.54-.23-1.09-.18-1.49.06Z"/><path class="cls-1" d="M821.42,573.13c.19.45.36.85.5,1.23.15-.88-.08-1.18-.5-1.23Z"/><path class="cls-1" d="M976.85,485.21c.03-.66.03-1.33-.02-1.89-.32.83-.22,1.41.02,1.89Z"/><path class="cls-1" d="M903.92,640.78c.4-.3.71-.66,1-1.07.07-.28.09-.54.19-.87l-1.19,1.94Z"/><path class="cls-1" d="M866.95,710.46c1.1-1.66.88-1.85.22-2.29-.65-.44-1.8-1.23-2.4-3.9-.87-.07-1.76-.18-2.68-.32,1.54,3.15,3.43,4.72,4.85,6.51Z"/><path class="cls-1" d="M800.28,539.46c-.1.07-.18.13-.28.18.05.02.09.03.15.06l.13-.24Z"/><path class="cls-1" d="M824.27,652.68c-.02-.36-.05-.68-.09-1-.07.27-.07.6.09,1Z"/><path class="cls-1" d="M901.25,658.59l2.66-5.9-1.62,1.51c.67.79-.06,1.56-.75,2.34l-.25.29c-.07.07-.14.14-.2.22-.12.15-.22.29-.27.45-.1.31-.01.66.42,1.09Z"/><path class="cls-1" d="M897.89,750.1l1.13,3.39c.82-5.55,1.84-9.59,3.01-13.03,1.16-3.44,2.45-6.29,3.71-9.22,1.26-2.92,2.47-5.91,3.37-9.35.89-3.43,1.46-7.29,1.33-11.76,2.52-1.02,3.85-2.97,4.41-4.97.57-2.03.4-4.18.17-6.25-.23-2.07-.52-4.06-.15-5.85.37-1.8,1.39-3.38,3.99-5.24l-1.03-.48c1.07-2.6,2.15-5.21,3.23-7.82,1.12-2.6,2.33-5.14,3.52-7.75l1.8-3.92c.36-.79.47-.98.66-1.36l.53-1.04c.71-1.39,1.42-2.78,2.13-4.18,2.86-5.57,5.63-11.18,8.61-16.65,2.89-5.5,5.61-11.02,7.97-16.57,1.2-2.77,2.24-5.57,3.3-8.33,1.08-2.75,2.05-5.51,2.89-8.28l1.41.74c2.35-3.98,4.6-7.98,6.79-12.01,2.2-4.01,4.22-8.11,6.48-12.06,4.4-7.98,8.59-16.02,12.73-24.09,4.34-7.95,8.78-15.85,13.25-23.75l3.39-5.91,3.64-5.76c2.45-3.83,4.95-7.64,7.52-11.41.57-3.67-3.48-3.82-3.41-7.28.8-1.01,2.19-3.57,3.84-2.52-.42,2.68,1.78,2.44,1.98,3.57,1.02-1.79,2.68-3.52,4.14-5.31,1.49-1.77,2.72-3.64,2.76-5.82l-3.83,1.15c-.08-1.77,1.78-3.23,2.61-4.23.77,1.17,4.12,1.15,4.01,2.42-.87-9.91,5.63-3.48,7.22-10.25-1.85-2.06-2.54-5.4-2.76-9.08-.11-1.84-.11-3.76-.09-5.64.02-1.88.15-3.67.16-5.33l2.82-1.49c-2.26,3.04,3.23,2.22.26,5.85,3.57-2.26,3.82-6.52,6.7-9.01-1.52-.21-2.84-1.39-2.45-2.95,1.94-1.41,4.24.02,5.98-1.91l-.15,3.06c2.64-.2,1.37-2.96,2.05-4.45,2.12.91,4.72-1.96,6.32.09-.41-4.63,1.69-4.61,2.36-8.79-4.22,1.7-1.77-2.59-3.5-3.36-.68,1.33-1.27,2.72-1.92,4.08,4.86-4.12-.87,1.88,2.47,3.79-3.14,1.3-2.69-7.03-5.1-2.71.95-2.95,1.93-4.44,2.85-5.99.94-1.54,1.76-3.18,2.36-6.51-1.67,3.3-1.55-2.07-3.68-1.24,2.74-3.73,1.77-.09,4.6.29,1.46-2.04,3.75-1.43,2.94-4.98,3.42-2.49,1.89,2.25,4.39,1.59,1.17,2.8-9.53,6.89-2.16,11.14-.61.85-.67,2.27-.83,3.76-.08.74-.18,1.5-.39,2.22-.19.73-.48,1.42-.96,2,.61-.37,1.34-.73,2.1-1.12.78-.38,1.6-.79,2.35-1.27,1.5-.96,2.75-2.21,2.99-4.07l-3.66-3.02c1.44-2.02-.8-4.4.64-5.55.5,1.59,3.13,1.47,4.06-.34-.88.03-1.25.76-1.77.07,2-3.13-.23-5.53,1.8-9.57-3.22,2.11-4.8,1.82-8.54,3.25-2.05-2.78,1.11-2.21,2.04-4.04.17.52-.02.91.86.85l.07-2.68c3.95-2.71,3.43,3.44,7,1.48,3.78-.3.97-3.77,3.43-4.35-.32-.09-.65-.18-.9-.22.32-.31.57-.51.79-.64-.07-.04-.13-.06-.2-.12,1.08-2.23,2.98-4.03,1.5-6.13,1.04.52,1.11-1.83,1.03-2.92.1-1.67-.07-6.03,4.3-5.02,0,.06-.07.08-.08.13,2.31-2.01,4.78-3,5.39-1.64l3.89-3.08,2.13,2.49c2.17-3.94.45-4.83-.13-9.34,1.76-.58,3.19-2.22,4.34-3.94,1.15-1.72,1.91-3.59,2.16-4.77.33-.18.7-.57,1.16-1.33l-2.19.54c2.43-2.48.87-3.31,2.39-5.02-.54.15-.73.08.51-.53.3-.25.63-.52,1.06-.82.18.32-.2.66-.67.93l1.09.41c4.41.23,1.4-4.47,4.28-5.87-.1.29-.25.8-.48,1,1.76-.66,6.75.66,5.14-1.74.52-.04.5-.86.37-1.75l1.18-.58c-.45.27-.83.44-1.17.56-.17-1.19-.54-2.51.04-2.11l3.28-2.77c.89-.28,1.31-1.38,1.59-2.33l1.48.4c.93-1.25,1.52-.72,1.66-.33,7.12-.66,4.05-7.63,11-9.01-.84-2.35-3.24-1.33-4.24-2.03-.61-1.85.6-5.32.89-7.38,4.04.28,11.5-3.52,13.78.55,3.56-3.19-2.99-.87-2.42-3.68l.51-.27c-1.52.82-3.5.68-5.38.14-1.97-1.43.49-4.99,1.89-5.44l1.8,3.08c2.27-4-1.99-6.96-2.42-11.35,3.52-1.51,4.23,2.13,6.93,3.8l2.07-3.2,1.8,1.84c1.25-2.16-.02-4.28,3.09-5.88-.05,3.42,5.26-1.75,5.14,2.92,1.92-.66-1.14-4.63,1.92-2.8-.98-2.88-2.14.16-3.41.19-3.28-2.32,1.62-4.2,2.51-6.49,1.54,1.35.59,2.78,3.41,1.95-.68-1.5-.3-3.53,2.06-3.19-1.76-1.87,1.76-2.47,2.99-3.32-1.6.72-4.61,1.06-5.35-1.34.22-1.68.72-2.79,3.17-4.53l-2.34.49c-.63-4.52,5.05-.87,6.86-4.12-.06,2.14-.75,2.77-.44,5.02.42-2,1.5-5.51,2.64-8.15l4.74.79c-.99-1.65,2.6-2.12.88-4.04,3.91-1.19-.15,4.3.85,5.95,4.58-1.83-.1-5.69,5.82-5.73l.5,2.79c1.21-.86,2.5-3.87,3.43-3.09-.57-.65-.9.11-1.58.73-2.74-4.47,2.71-7.29-1.2-10.94l-1.76,1.12c1.64-2.92,1.04-7.06,4.13-7.21,2.55.1,1.35,3.58,1.41,5.33,2.49-1.65-1.97-5.98,1.1-7.88-1.99.55-2.95-1.11-2.98-2.88-1.81,1.07-5.79,3.08-3.74,4.28l.91-.09c.76,1.16.23,2.27.25,3.16-2.15,1.82-2.57-.95-3.68-1.37-4.05,2.51,3.22,4.27-.08,7.01l-1.1-.4c-.62,2.41-2.86,4.68-1.1,7.5-3.68-1.32-2.68,4.26-5.57,4.1-5.35-5.35,5.74-4.49,4.8-9.19-2.7.35-1.44-3.56-1.87-5.49l-3.12,7.21c-1.11-.39-5.18-1.79-4.3,1.12l.53-.25c-1.52,2.53,1.12,4.31-1.38,5.18-.74-.26-1-1.65-1.2-2.15-2.14,1-.24,2.53-.89,4.04-2.13,1.01-1.25-3.04-3.22-2.4.03,3.9-3.54,2.26-5.11,3.91,1.83,1.26,1.11,3.8.82,6.05-.31,2.24-.3,4.08,2.74,3.77l-1.86,5.87c-2.75-.45-1.46-6.94-5.01-8.53l3.21-2.89c-4.17-3.39-4.11,8.82-10.28,6.5-1.82,1.44-.89,1.58-5.9,2.72l3.86,2.9c-2.39.79-4.73-.56-5.42-1.11-.75,1.15-1.69,1.9-2.73,2.61-.26-.73-.37-1.51.03-2.25-3.08-.69-2.75.36-2.2,1.78.18,1.5-.95,2.36-2,3.32l-.32-2.15c-.35.89-.75,2-.22,2.67-.41.42-.74.89-.92,1.47.86.32,3.5,1.64,5.83,1.1-5.15,2.28-7.21,6.03-13.17,6.51-.87-1.09-.77-3.65-1.29-3.36-2.07,1.15-2.06,4.6-.44,5.9-.26.46-.5.78-.72,1.04-1.15-.52-2.43-1.02-3.32-.39-.48-.12-1.04-.09-1.69.36,2.19,3.17-2.18,4.98-1.59,6.85.99-.47,1.84-1.39,2.63-2.39.55,3.06,1.52,6.21-.92,5.82.6-4.09-5.35-.12-2.57-4.51-5.96-.73,1.19,3.71-2.67,5.26l-3.08.47c-1.75-2.15,1.76-3.8.61-4.1l-.93,1.47c-.31-2.65,5.14-6.34,5.67-11.34l-6.65,4.69c-1.15,2.38-2.73,4.56-4.47,6.65-1.75,2.09-3.54,4.22-5.3,6.31-3.49,4.2-6.6,8.5-7.2,13.67.07-.1.13-.21.18-.32.1.29.44.68,1.14,1.47l-.77-.17.43,2.63c-3.2-.29-5.98,2.03-9.56,2.94q2.56-.3,4.24.92c1.82,2.1,2.5,3.09-.16,4.52-1.49-1.26-.29-2.53-2.85-1.99,1.45-.17,1.82,1.43,1.23,2.55-1.98.39-3.9,2.25-5.41.99.07-.91.97-.93,1.51-1.12.08-.91-3.27,1.15-3.07-1.58l-1.44,2.58c-2.33.23-1.23-2.54-2.46-2.71-2.1,4.57-.25,9.36-2.03,13.54-.67-.82-3.98-3.67-3.04-2.82-3.17,1.73-.98,8.54-3.14,11.66-.64-1.25.67-2.01.93-3.29-2.19,1.96-4.23,3.88-6.19,5.77-1.9,1.93-3.76,3.81-5.65,5.63-3.8,3.63-7.79,7-12.82,10.05l1.8,4.98-4.13.44c-1.17.92-2.25,1.86-3.25,2.82-.98.97-1.85,1.99-2.67,3.02-1.64,2.05-3.02,4.18-4.29,6.37-2.54,4.38-4.6,9-7.28,13.82-1.78,2.92-3.75-.16-5.73.41-2.45,2.87-2.81,5.48-3,8.13-.2,2.65-.21,5.37-1.79,8.6-.59-1.59-2.82-5.17-4.71-2.72.75,1.21,2.22,2.66.47,3.82l-.58-1.59c-2.66.34-2.05,2.83-4.83,5.39-3.57,5.44-4.48,12.3-3.07,19.52-3.43,4.59-3.74-3.11-5.13-2.73,3.54-2.53.83-2.81,0-4.4-.08,2.51-.81,5.12-4.09,4.32-1.43,2.64-2.28,3.71-2.03,7.36-.12-1.84,2.01-1.99,2.5-.04-2.24,1.47-4.52,7.37-7.73,4.97-1.72,3.1-3.59,6.24-5.54,9.4-1.88,3.21-3.79,6.48-5.76,9.75-3.92,6.55-7.98,13.17-11.72,19.78.52,3.22,1.67-1.29,2.23.64.51,4.54-2.63,1.89-2.19,5.54l-1.33-2.14c-2.39,3.75-1.07,9.83-1.32,14.54-1.85-1.8-3.48,2.12-3.1-1.71-.62,2.03-11.64-.96-10.41,1.56l10.27,2.78c.84.58-1.1,2.87-.35,2.93-2.67.65-5.86,1.51-6.46,2.63-2.62-.67-.6-3.22.27-4.73-3.74-2.28-5.27,3.9-7.62-.2-1.15,3.65,2.24.57,2.61,3.3l-2.38,2.46,2.5-1.55c-.13,3.02,2.35,5.34-1.41,7.5l2.13,5.32c-3.25-1.22-1.79,2.18-3.36,3.55l-1.43-2.08c-1.05,2.36-2.02,2.99-3.87,3.88-2.07-2.66,1.69-1.77-.6-3.62l-2.17,2.1c1.76.86,2.33,3.16,4.29,1.86,2.09,3.98,4.18,6.6,1.01,12.34-4.33,1.21-1.25-4.15-4.77-4.49-2.16,2.76-1.13,5.58.18,8.12,1.31,2.54,2.88,4.8,1.9,6.53-3.32,4.04-.41,5.08-2.32,9.84-1.4-2.44-3.69,2.25-6.06,2.22l-1.31-2.83c0,1.72-1.44,2.73-2.76,1.62,2.93,1.01-.13,7.28-.25,11.11l2.66.49c-.17,1.44-.27,3.19-.55,4.89-.29,1.69-.75,3.33-1.6,4.56-.88,4.36,1.64,4.36,3.01,8.56-2.89.78-5.39-.48-7.81-2.16,1.68-.56,1.71-2.69,3.18-4.15-.07-6-3.24-12.1.18-16.64-4.83-4.77-.86,3.71-4.02,5.25-.32-.22-.35-.45-.32-.66-.11.21-.23.39-.45.54.1-2.12.51-5.49-2.24-7.3-.78,3.31,4.82,4.76.62,7.44.34,3.48-5.18,3.83-6.3,5.38,1.41,2.83,6.08,4.9,3.27,9.15l-2.45-3.41c-2.23,5.24,3.81,4.48,1.67,9.27,1.09-1.54,2.56,2.97,3.98-.22.55,1.16.55,2.65.16,4.13-.13.44-.14.55-.24.8-.09.22-.19.43-.32.63-.25.4-.58.74-.96.99.3.69,1.01.73,2.02,1.46,1.48-.34,1.31-1.51,1.17-2.41-.1-.38-.03-1.08.26-1.56.3-.51.86-.92,1.93-1.17l-2.73-3.48c2.4-2.17,5.36-1.24,6.08.98.16-.82-.05-1.69.79-1.98,5.53,1.77-3.23,2.43.93,5.24l.39-2.05c3.8.63,1.25,5.65,0,8.01-2.74,2.03-4.2,3.89-6.49,2.32.09-1.25.16-2.45.21-3.59-1.26.21-1.32,1.18-1.22,2.47.1,1.27.35,2.87-.06,3.72-.34-.16-.62-.21-.85-.16.22.1.43.23.63.44-.26.27-.65.34-1.24.08-.35.67-.46,1.88-.59,3.09-.14,1.19-.36,2.35-.91,2.61l1.66,2.36-.82-1.63c.3-.68.89-1.15,1.53-1.15.64.01,1.32.49,1.72,1.97-.13,2.73-1.09,3.22-2.15,2.62-1.07-.57-2.27-2.13-3.06-2.97-1.03-2.49-.79-3.11-.29-3.57.49-.44,1.27-.79,1.1-2.12-1.46-1.26-1.75-.74-2.04.22-.28.93-.6,2.41-1.8,2.2-1.01-2.98-.79-3.54-.53-4.09.25-.53.53-1.02-.63-3.13-.52.43-.34,1.49-.23,2.62.11,1.11.16,2.3-.48,2.56-.95-2.71-.51-4.42-2.03-7.09-.33-.18-.66-.4-.96-.65.26-1.02-.57-2.35-1.42-3.85-.86-1.48-1.73-3.22-1.97-3.96-.55-.86-.05.11.34,1.08.39.94.66,1.92-.12.4.5,1.14,1.24,2.64,1.97,4.12.72,1.49,1.42,2.99,1.67,4.54-.36-.15-.7-.35-1.02-.6-.57-1.22-1.02-3.04-1.51-4.64-.48-1.62-1.01-3.02-1.48-4.07.21.74.39,1.54.55,2.39.57,1.85,1.01,2.39,1.74,5.09-.41-.73.09,1.21.69,3.97.6,2.74,1.31,6.29,1.47,8.39-.38.74-.75,1.04-1.36-1.27.14,2.14.14,3.99.08,5.7-.03.86-.08,1.68-.15,2.48l-.1,1.2-.03.3c-.01.08-.01.24-.04.22l-.13.1c-.69.48-1.46.8-2.19,2.69.49-1.39.29-3.42-.02-5.5-.33-2.09-.79-4.24-1.09-6.2.98.49.39-6.79.06-11.4-.11.2-.13,2-.14,4.01,0,2.02.04,4.28.22,5.62-.49-2-.59-1.02-.74-.32-.13.73-.32,1.16-.67-1.51-.22-1.43-.08-2.83.05-4.26.14-1.43.26-2.9.24-4.15-.26-.51-.39,1.27-.55,2.86-.15,1.6-.34,2.99-.76,1.66.13-.68.22-.81.26-1.96-.16-.9-.4-.81-.72-.27-.31.55-.71,1.57-1.01,2.75.34-3.74.03-3.94-.31-4.16-.33-.2-.61-.3.39-3.01-.7.12-1.01.82-1.15,1.82-.16.98-.14,2.29-.6,3.08-.71.83-1.23.27-1.5-.56-.28-.84-.3-1.93-.24-2.5.41.39,1.35-.54,1.28.63.44-1.28.91-2.53,1.41-3.73.03-.97-.2-.99-.66-.69-.45.31-1.11.98-1.79,1.59-.68.61-1.38,1.17-1.91,1.26-.53.1-.91-.3-.81-1.39,1.07,0,1.55-.41,2.06-.91.5-.52,1.03-1.11,1.97-1.83-.36.21-.6-.16-.91-.27-.3-.1-.74-.02-1.38,1.27-.16-.47-.17-.85-.19-1.32-.33-.9-.57-1.75-.8-2.59-2.28-.98-4.38-2.31-6.87-2.04-1.68-2.92-1.21-6.31-.97-8.46-6.07-4.31-6.55-11.98-12.97-16.51l.16.56c-2.87-5.03-2.1,4.65-5.5-.27,3.78-1.74.14-4.52.76-7.35-2.6-7.18-9.84-8.55-11.57-15.63.72-.45,1.81-.7,2.65.3-1.98-4.94-5.07-7.83-7.62-11.73l.52-.13c-1.68-7.98-8.87-11.15-14.18-16.84.78.21,2.12-.56,2.85-.48-1.53-3.69-4.69-9.08-9.3-9.12.55-6.09-2.78-1.77-3.1-8.86.38-.7.89.09,1.25.32-.62-3.16-2.17-4.59-3.51-7.27-5.92-3.77-11.12-2.01-14.27-9.08,4.27-3.56,3.84,2.97,7.52.53-1.68-.65-3.36-1.05-3.52-3.51,2.49-.25,1.27-.58,3.41-1.06.25-2.14-8.45-1.84-8.01-2.12-.92.56-1.07,1.34-.07,2.46-3.8.56-4.58-5.87-7.84-8.05.62,1.02,1.94,4.7-1.01,5.09-1.93-4.68-7.21-2.89-11.01-4.39-.62-5.14,5.73-.01,8.39-2.98.7-1.44,2.16-4.74,4.5-4.08-1.71-3.79-6.13-4.23-8.94-6.68l.95-.56c-3.34-3.85-10.4-5.44-11.1-10.19l.3,2.57c-1.02-.29-2.26-2.56-4.9-2.39,1.57-.95.97-4.59,2.98-4.37-6.06,1.59-9.63-7.29-15.6-6.1.39-1.96,2.95-2.46,4.27-2.91,1.47,2.89,1.16,4.45,4.04,4.45-1.62-2.12-1.55-4.58-.23-5.02-4.51-.04-9.39-4.35-13.12-3.31.34-2.65.05-4.73,2.91-5.95-6.31-5.53-5.22,8.75-10.59,1.23-.08-5.13,5.63,1.01,3.05-4.29l1.02.59c3.88-7.97-6.24.87-8.81-3.13,3.08-3,4.4.91,4.95-3.53-3.41-2.9-9.64-.76-11.08-5.08l1.86-.5c-1.9-2.06-4.36-6.95-6.25-9,.6-.6.74-.2,1.24.09-1.69-5.1-3.01-.47-3.09-5.59l-2.38.23c.04,2.57.74,7.09,4.27,7.83-3.53-.74-1.92,6.53-5.63,7.58l1.49-.42c-.99,9.29,3.63,17.02,6.89,25.56,6.78,1.97,4.13,8.71,10.06,11.8,4.57-2.15,1.46.32,5.28,3.9-2.09-1.84-3.26,1.95-2.79,3.74,1.63.06,2.72.78,3.8,1.5-.77,1.83-.23,9.42,3.89,9.37.53,3.46-1.72.34-2.95.39-1.32,2.52,3.11.9,2.33,2.74,0,0-.47.27-.86.16,2.96,3.76,3.58,6.83,5.98,11.23,4.19-2.52,4.35,2.89,7.06,3.66-1.7.34.16,3.34.23,5.02l4.5.04c4.04.34.39,4.24,3.73,6.04l.23-1.18c2.65,1.17,4.1,8.2,3.41,11.72,21.19,13.09,16.48,32,32.76,50.16,2.12.42,1.33-2.38,3.81-2.65,1.9,1.67,2.06,2.24,3.43,4.02-.1-2.37-1.23-1.16.02-1.75l-3.12-1.98c.19-.34.53-.12.91-.8-1.04-.67-2.62-1.2-3.28-2.56,2.27.98,5.53-.64,6.13,2.52-.53.11-.88-.11-1.58-.54,1.17,2.11,2.64,1.2,2.92,3.22.64,2.26,1.22,1.17.12,2.31l2.43,6.69c5.49.25,4.63,6.06,4.95,7.19-3.05,1.28-3.46-3.1-7.01-2.61l-.47,3.38,2.18-1.39,1.48,3.26-.52.13c1.06-.25,2.13-.49,1.93.76-.2.33-.57,1.02-.92.79l2.62,1.2c-3.02.38.64,2.25-2.07,3.76,3.53,7.54,9.46,6.01,10.26,14.31.49-1.8,5.28-.99,6.12,1.13.14,1.48-.24,2.15-1.67,2.18l2.98,1.43c-1.78,5.76,2.81,6.83,4.6,12.11l-1.26.57c2.46.66,4.74,1.64,6.07,4.34l-2.52,1.15c.29,2.03,1.85,1.76,3.46,1.51.8-.12,1.62-.24,2.29-.06.18.05.31.09.49.22.22.18.43.4.63.64.41.5.78,1.14,1.13,2,1.11-.96,1.33-2.54,1.55-4.09.06-.39.11-.78.18-1.15.12-.3.26-.59.4-.88.3-.57.66-1.12,1.16-1.6-.45.65-.71,1.28-.68,2.05.13.91.47,1.84.88,2.59.83,1.52,1.9,2.29,2.22.93,4.42,4.09,2.43,3.49,2.27,4.49,1.12.53,2.2,1.02,3.25,1.47,1.18,1.76.83,2.91-.08,3.61-.91.7-2.43.89-3.47.87,2.28.48,3.68,2.02,4.93,4.13,1.24,2.09,2.33,4.76,3.69,7.08-.59-.07-1.19-.15-1.8-.25l3.78,6.15c3.49.94,6.8,5.24,9.9,11.6-.98.84-2.02,1.58-3.12,2.24,2.13,6.37,1.56-.12,2.31-.18,2.06,1.26,3.13,3.04,4,5.43.87,2.38,1.5,5.3,2.53,8.58,1.66.58,3.19,2.53,4.79,5.28,1.59,2.74,3.23,6.27,4.92,9.77,1.68,3.49,3.41,6.95,4.99,9.3.76.94,1.66,3.03,1.9.26.37-1.76.68-3.89.88-6.44ZM1105.28,366.19h-.79c.36-1.33.38-2.25.79,0ZM1083.14,389.07c1.44-3.84,1.99-1.74,2.98-1.25-3.32,2.11-3.81,4.46-6.88,6.21.93.09,1.77.69,2.37.97-.99.89-2.49,1.36-4.26.44-.93-1.89,1.19-3.46,3.2-4.57,2.04-1.08,4-1.68,2.59-1.8ZM1119,323.43c.11.3.21.62.27.93l-.02.02-.26-.94ZM1107.82,339.55c-.79-.38-1.44-.36-2.07-.15.99.46,1.83.81,2.07.15ZM1078.04,364.36c-1.79-.41-2.79,1.42-3.5,2.77.59-.4,1.79-.99,3.5-2.77ZM940.13,563.75c0-1.32-.38-4.02-2.36-2.8.76,1.5-2.23,2.02-.76,3.72-.12.07-.17.06-.26.09,1.71-.42,3.14-.74,3.38-1.01ZM903.92,673.42c-1.09-1.58-2.08-3.76-3.17-4.24.07-.04.13-.13.21-.18-.51-.18-.92-.35-1.1-.82-.54.51-1.14.92-1.01,1.87,1.78,2.44,2.64,4.38,3.25,5.19.61.8.94.38,1.82-1.83Z"/><path class="cls-1" d="M899.46,628.86c-.11.44-.29.74-.33,1.03.12-.27.22-.59.33-1.03Z"/><path class="cls-1" d="M898.92,669.92c.2.36.93-.06,1.83-.73-.57-.29-1.19-.18-1.83.73Z"/><path class="cls-1" d="M1176.61,293.84l-.51,1.11,2.72-.26c1.71-3.68.4-5.5-.57-8.05-.97,3.99-3.37,4.34-6.13,7.69,1.47-.2,2.99-.34,4.49-.49Z"/><path class="cls-1" d="M1163.9,282.09c-.75-.28-2.58-.94-3.11-.69l.61,1.55c.84-.29,1.65-.6,2.5-.86Z"/><path class="cls-1" d="M1125.7,306.83l3.54-1.51c-.12-1.79-4.8-.63-3.54,1.51Z"/><path class="cls-1" d="M1155.78,315.8l.2-2.51c-2.17.1-3.71,1.72-2.7,3.35.95-2.24,1.12.39,2.49-.85Z"/><path class="cls-1" d="M1118.49,313.34c1.35,3-3.56,1.53-2.05,4.14.08-1.27,4.08-1.79,2.05-4.14Z"/><path class="cls-1" d="M1140.76,332.71c2.83,1.33,2.36-1.81,4.43-2.85-1.33,1.28-5.33.86-4.43,2.85Z"/><path class="cls-1" d="M1110.92,333.1c-1.45-1.69-.28-2.67,1.27-3.53.09.89.56,1.89.28,2.67.75-3.25,1.11-3.16,2.02-5.45-2.76.44-5.79,2.24-7.51.03.29,2.67,1.04,6.34,3.94,6.28Z"/><path class="cls-1" d="M1137.17,336.68c1.93-.67,4.15.03,5.62-1.63-1.35-.84-3.44-1.94-5.05.12l-1.13-2.49c-3.05.32,3.06,1.8.56,4Z"/><path class="cls-1" d="M1099.41,336.41h1.65c.37-3.34,3.47-5.08,2.19-8.45-2.11,2.44-3.9,6.28-3.84,8.45Z"/><path class="cls-1" d="M1127.27,339.58l2.29,2.8c2.21-1.44-.99-.73-.93-1.98.9-.15,1.93-.68,1.84-1.55-1.74,2.42-2.19-1.93-3.2.73Z"/><path class="cls-1" d="M1124.13,348.45l-1.2,3.46,4.6.91c1.7-3.74-1.47-1.71-3.41-4.37Z"/><path class="cls-1" d="M1119.58,349.69l-.75-.22.37,7.29c.45-3.68.82-3.57.38-7.07Z"/><path class="cls-1" d="M1060.96,378.78c.8,1.45,4.18.42,2.05.27-.6-1.28-4.68.47-2.05-.27Z"/><path class="cls-1" d="M1090.65,388.77c-1.82.28-3.27,5.16-3.81,7.36,1.03-2.29,5.6-6.22,3.81-7.36Z"/><path class="cls-1" d="M1086.63,397.04c.03-.19.11-.52.21-.91-.16.35-.23.64-.21.91Z"/><path class="cls-1" d="M1040.4,468.23c-.09.2-.12.44-.03.73,0-.25.02-.47.03-.73Z"/><path class="cls-1" d="M1040.85,466.07c1.22-.79,2.05-3.53.98-4.9-.63,2.2-1.36,4.01-1.44,7.05.4-.87,2.03-1.11.45-2.15Z"/><path class="cls-1" d="M1028.89,481.32c-.24-1.4.95-2.25-.48-2.83-.87.09-.76,2.78.48,2.83Z"/><path class="cls-1" d="M921.54,572.43c-1.59,1.38-1.54,2.69.7,3.24.94-1.97-.79-1.51-.7-3.24Z"/><polygon class="cls-1" points="921.56 578.12 920.44 577.85 918.34 578.23 921.56 578.12"/><path class="cls-1" d="M912.65,588.7c-.28-.25-.48-.73-.52-1.16-.06.82-.07,1.54.52,1.16Z"/><path class="cls-1" d="M912.18,587.13c-.03.12-.04.27-.04.41.01-.13.03-.28.04-.41Z"/><path class="cls-1" d="M913.21,586.66l-1.01-.67c.06.27,0,.72-.03,1.15.09-.36.4-.64,1.04-.48Z"/><path class="cls-1" d="M910.5,592.14l4.22-.8c-.34-3.13-2.93,1.95-5.05-2.01l.83,2.8Z"/><path class="cls-1" d="M907.4,600.57c-2.04,1.75,1.41,7.26-2.84,6.81-.92,7.2,6.79,1.4,4.94,9.22,4.96-5.9-5.54-6.72-.76-11.82-3.6,1.86-.93-2.82-1.34-4.2Z"/><path class="cls-1" d="M914.09,602.44c-.83-.61-1.63-.25-2.12.46-.48.71-.62,1.76-.21,2.49.57-.73,3.77-.92,2.33-2.94Z"/><polygon class="cls-1" points="903.46 613.68 901.16 614.96 902.12 616.01 903.46 613.68"/><path class="cls-1" d="M899.41,620.66l-1.3-2.84c.56,1-.88,3.74,1.3,2.84Z"/><path class="cls-1" d="M892.11,629.69c-1.53,1.46,2.74,5.22,3.34,1.01l-.58.77c-.67-.56-3.35.7-2.76-1.78Z"/><path class="cls-1" d="M891.13,654.4c.3-.42-.11-1.26-1.17-1.65.19.51.36,1.06.52,1.66.21,0,.43,0,.65-.02Z"/><path class="cls-1" d="M902.76,660.93c1.65.34,1.91-.47,1.94-1.46.02-.51-.03-1.02.06-1.59.09-.56.3-1.11.77-1.56-1.64,2.31-1.89,1.72-2.78,4.6Z"/><path class="cls-1" d="M886.75,652.68c-1.03-1.08-.23-.71.03-.77-1.65-.95-1.32-.47-.03.77Z"/><path class="cls-1" d="M887.13,654.76c-1.06-.94-1.32-1.66-2.03-2.32-1.19-1.01-1.05-.82,0,1.49.75,1.21,1.66,2.67,2.2,3.53.88,1.42,1.76,2.9,2.22,4.03-.06-1.47-1.1-3.84-1.74-5.19-.63-1.38-.84-1.79,1.03-.13-1.29-1.92-2.67-3.62-4.15-5.09-.83-.44,2.96,3.42,2.47,3.68Z"/><path class="cls-1" d="M897.1,659.33c-.72.06-1.42.07-2.1.04,1.63.98,1.49,2.17,1.66,3.37,1.71,1.39,1.84.64,1.52-.46-.32-1.12-1.12-2.52-1.08-2.95Z"/><path class="cls-1" d="M886.3,664.16c-.04,1.03-.1,2.12-.18,3.25l.29-.11c-.02-1.09-.05-2.14-.11-3.14Z"/><path class="cls-1" d="M885.42,662.73l-.49-2.12c.19,1.59.35,3.27.47,5.04.02-1.02.03-1.99.02-2.92Z"/><path class="cls-1" d="M884.46,661.27l.11.24c-.04-.88-.1-1.73-.17-2.55.03.74.05,1.5.06,2.31Z"/><path class="cls-1" d="M883.24,659.69l.42,3.61c.05-.33.26.61.41,1.06.15.45.22.36-.11-2.14.06,1.48-.43.3-.72-2.53Z"/><path class="cls-1" d="M855.18,698.01c1.55.13,1.52-1.67,1.59-3.4-1,.34-2.03.63-3.09.89.52.46,1.53,1.35,1.51,2.52Z"/><path class="cls-1" d="M852.25,685.54c-1.9-.66-3.88-1.45-5.95-2.35,1.93,3.13,3.54,4.42,5.09,5.41,1.56,1,3.07,1.71,4.97,3.88-.43-1.53-1.5-2.42-2.66-3.42-1.16-.99-2.42-2.08-3.05-3.76.55.09,1.08.17,1.62.24Z"/><path class="cls-1" d="M811.82,624.99c1.98-1.05,1.28-1.49,3.92-.3-3.13-1.99-4.47-4.67-7.05-7.67-.74,1.36-4.43.39-3.06,1.27l3.66,2.78-1.62.35c.43,3.5,3.19.18,4.14,3.56Z"/><path class="cls-1" d="M727.45,467.78c1.11-.3,1.6-1.3,2.08-2.3-2.51-1.43-1.58,2.59-2.08,2.3Z"/></g></g></svg>