<?xml version="1.0" encoding="UTF-8"?><svg id="Layer_2" xmlns="http://www.w3.org/2000/svg" viewBox="0 0 96 96.25"><defs><style>.cls-1{fill:#243e90;stroke-width:0px;}</style></defs><g id="small"><g id="small-2"><path class="cls-1" d="M16.71,77.1c-1.26,1.57-2.51,3.13-3.86,4.81-1.56-2.09-3.13-4.06-4.54-6.13-4.27-6.24-6.86-13.16-7.83-20.63-1.78-13.71,1.42-26.15,9.93-37.12,4.84-6.23,11.03-10.74,18.21-13.91,4.69-2.07,9.6-3.39,14.71-3.88,13.43-1.29,25.37,2.41,35.71,11.05,6.7,5.6,11.34,12.67,14.25,20.89,2.23,6.28,3.09,12.77,2.57,19.41-.61,7.71-2.61,15.02-6.64,21.69-5.4,8.94-12.94,15.42-22.61,19.42-4.31,1.78-8.75,3.04-13.4,3.55-.06,0-.12,0-.26-.01.17-.14.28-.26.4-.35,2.85-2.11,5.55-4.39,7.94-7.02.24-.26.6-.43.94-.56,3.73-1.51,7.3-3.32,10.56-5.71,8.93-6.54,14.3-15.32,16.45-26.12,1.41-7.05,1.15-14.04-1.05-20.9-4.05-12.62-12.25-21.48-24.45-26.62-5.87-2.48-12.01-3.5-18.36-3.05-6.4.45-12.41,2.3-18,5.45-11.11,6.27-17.87,15.75-20.61,28.14-1.31,5.92-1.17,11.87.07,17.78,1.53,7.28,4.62,13.81,9.55,19.43.11.12.2.26.31.4Z"/><path class="cls-1" d="M42.43,44.71c.13.78.2,1.57.41,2.33.77,2.82,2.63,4.63,5.44,5.27,2.47.56,4.99.86,7.49,1.28,4.12.68,8.15,1.64,11.82,3.74,1.37.78,2.57,1.77,3.54,3.02,2.08,2.65,2.17,5.5.85,8.51-1.66,3.77-4.15,6.96-6.99,9.88-5.16,5.3-10.97,9.75-17.58,13.11-2.45,1.24-4.97,2.32-7.63,3.01-.04-.05-.09-.09-.13-.14.12-.06.25-.1.35-.18,5.34-4.34,10.2-9.13,13.88-15,1.17-1.87,2.28-3.78,2.91-5.91.92-3.12-.14-5.93-2.89-7.66-1.68-1.05-3.59-1.38-5.48-1.78-1.75-.36-3.54-.63-5.19-1.27-3.21-1.23-5.2-3.63-5.64-7.09-.3-2.35.41-4.56,1.57-6.57.93-1.61,2.07-3.1,3.11-4.64.06.04.11.07.17.11Z"/><path class="cls-1" d="M49.59,49.45c-2.47-.88-3.46-2.68-3.84-5-.24-1.45-.44-2.94-.97-4.3-1.88-4.82-6.15-6.89-11.14-5.5-3.21.89-6.04,2.57-8.67,4.56-4.16,3.14-7.83,6.77-10.89,11.01-.15.21-.33.4-.49.6-.08-.02-.15-.05-.23-.07.17-1.11.24-2.25.52-3.34,1.35-5.16,3.94-9.67,7.33-13.76,2.69-3.24,5.79-5.97,9.61-7.8,3.99-1.91,8.14-2.33,12.27-.65,4.79,1.95,7.99,5.41,8.95,10.63.53,2.92.16,5.81-.71,8.63-.52,1.66-1.14,3.29-1.74,4.99Z"/><path class="cls-1" d="M35.23,59.92c.19.32.34.59.5.85,1.84,3.17,4.68,4.93,8.16,5.78,1.51.37,3.04.66,4.62,1-.09.14-.16.27-.25.39-4.26,5.33-9.15,10-14.56,14.15-5.19,3.99-10.63,7.58-16.57,10.38-2.22,1.05-4.49,1.95-6.91,2.54,1.24-1.34,2.48-2.62,3.65-3.97,3.45-4,6.97-7.95,10.29-12.06,4.57-5.66,8.34-11.82,10.9-18.67.04-.11.1-.21.18-.39Z"/><path class="cls-1" d="M61.47,43.8c2.24-6.17,2.24-12.12-1.46-17.8,1.73,1.04,3.38,2.15,4.81,3.56,1.45,1.42,2.66,3.02,3.69,4.8,1.28-.54,2.24-1.44,3.07-2.5,1.5-1.93,2.18-4.2,2.52-6.56.2-1.42.24-2.86.36-4.42.45.51.91.97,1.3,1.48,1.14,1.53,1.69,3.3,1.82,5.17.29,4.11-.41,8.06-2.38,11.7-1.98,3.65-5.06,5.6-9.27,5.56-1.53-.01-2.99-.44-4.45-1Z"/><path class="cls-1" d="M55.13,50.71c-.82-.21-1.62-.41-2.45-.62.53-1.37,1.07-2.65,1.51-3.96.88-2.66,1.38-5.39,1.32-8.21-.15-6.65-3.29-11.44-9.08-14.57-.73-.39-1.5-.7-2.24-1.16.95.09,1.91.12,2.85.28,1.53.27,3.08.51,4.57.96,3.57,1.08,5.79,3.61,7.1,7.01,1.15,2.98,1.26,6.03.67,9.15-.69,3.64-2.54,8.58-4.25,11.13Z"/><path class="cls-1" d="M45.38,14.61c0-3.19,2.52-5.65,5.75-5.63,3.11.01,5.7,2.65,5.67,5.77-.03,3.01-2.74,5.67-5.77,5.66-3.08-.01-5.66-2.66-5.65-5.8Z"/></g></g></svg>