<svg id="Layer_1" data-name="Layer 1" xmlns="http://www.w3.org/2000/svg" xmlns:xlink="http://www.w3.org/1999/xlink" viewBox="0 0 820.36 820.31"><defs><style>.cls-1{fill:none;}.cls-2{clip-path:url(#clip-path);}.cls-3{fill:#6b2975;}.cls-4{fill:#fff;}.cls-5{fill:#8cc63f;}</style><clipPath id="clip-path" transform="translate(-11.83 -10.29)"><rect class="cls-1" x="10.89" y="9.01" width="821.55" height="823.31"/></clipPath></defs><title>We Heart NDIS_2020</title><g class="cls-2"><path class="cls-3" d="M832.18,420.65C831.85,649,646,832.07,419.26,830.6,194.16,829.14,11.14,645.72,11.83,419.05,12.52,194.05,195.4,9.26,424,10.3c225.76,1,408.1,184.21,408.19,410.35" transform="translate(-11.83 -10.29)"/></g><path class="cls-4" d="M188.13,516.51q11.63,0,15.08.79c2.31.52,3.77,1.62,4.4,3.3a40.73,40.73,0,0,1,1.1,5.65c.32,2.31.68,4.61,1.1,6.92a56.3,56.3,0,0,1,19.33-14.3,61.25,61.25,0,0,1,26.24-5.5q14.44,0,25.46,4.4a47.3,47.3,0,0,1,18.22,12.57,52.74,52.74,0,0,1,11.32,20.74q3.45,11.94,3.45,29.85v96.8a3.87,3.87,0,0,1-.63,2.2,4.28,4.28,0,0,1-2.67,1.41,45.27,45.27,0,0,1-6.12.79q-4.1.32-11,.31h-1.58q-7.53,0-11.78-.31a46.33,46.33,0,0,1-6.29-.79,3.56,3.56,0,0,1-2.51-1.41,4.92,4.92,0,0,1-.47-2.2V592.88q0-8.18-.31-13.67a91.08,91.08,0,0,0-1-9.28,22.69,22.69,0,0,0-1.88-6.28,23.12,23.12,0,0,0-3.15-4.72,20.36,20.36,0,0,0-8.64-5.34,38.37,38.37,0,0,0-12.41-1.88,51.06,51.06,0,0,0-11,1.25,35.75,35.75,0,0,0-10.06,3.78q-5,3.13-6.6,7.07a36.92,36.92,0,0,0-2.2,9.58A119.18,119.18,0,0,0,213,586.9v90.83a3.94,3.94,0,0,1-.62,2.2,4.31,4.31,0,0,1-2.67,1.41,45.7,45.7,0,0,1-6.13.79q-4.09.32-11,.31H191q-7.54,0-11.79-.31a45.91,45.91,0,0,1-6.28-.79,3.57,3.57,0,0,1-2.52-1.41,4.92,4.92,0,0,1-.47-2.2V591q0-18.54-.63-37.24t-1.57-31.58a9.38,9.38,0,0,1,.32-2.67c.2-.74.94-1.31,2.2-1.73a26.91,26.91,0,0,1,5.81-.95c2.62-.2,6.13-.31,10.53-.31Z" transform="translate(-11.83 -10.29)"/><path class="cls-4" d="M457.14,443.6c4.6,0,8.27.11,11,.32a45.81,45.81,0,0,1,6.13.78,4.28,4.28,0,0,1,2.67,1.41,3.89,3.89,0,0,1,.63,2.2v192q0,5.34,2.2,7.07t6.92,1.73c1.88,0,3,.74,3.45,2.2s.63,5,.63,10.68v3.46a61.35,61.35,0,0,1-.63,11c-.42,1.89-1.15,3-2.2,3.46a66.68,66.68,0,0,1-10.37,2.67,67.82,67.82,0,0,1-12.25,1.1q-10.38,0-17.29-4.24A24.75,24.75,0,0,1,438,668a56,56,0,0,1-19.33,13,68.13,68.13,0,0,1-52-1.26,58.54,58.54,0,0,1-20.9-16.66,75.93,75.93,0,0,1-13.2-26.24A122.8,122.8,0,0,1,328,602q0-20.75,5-37.24t14.14-28A60.46,60.46,0,0,1,369,519.34a65.43,65.43,0,0,1,28.13-6,54.76,54.76,0,0,1,37.4,14.14v-79.2a5,5,0,0,1,.47-2.2,3.54,3.54,0,0,1,2.51-1.41,46.46,46.46,0,0,1,6.29-.78q4.25-.32,11.78-.32ZM434.51,564.91q-12-14.46-28.29-14.46-17.28,0-25.61,13.2T372.28,602q0,14.14,3,23.25T383,639.7a23.66,23.66,0,0,0,10.68,7.07,41.22,41.22,0,0,0,12.89,2,42.8,42.8,0,0,0,13.35-2.2q6.76-2.19,10.22-6a15.3,15.3,0,0,0,3.45-6.75,45,45,0,0,0,.95-10.22Z" transform="translate(-11.83 -10.29)"/><path class="cls-4" d="M570,646.93q4.08-7.23,6.6-9.43a3.63,3.63,0,0,1,5-.31,80.32,80.32,0,0,0,19.64,9.9,63.11,63.11,0,0,0,20.58,3.61q12.57,0,19.49-4.24t6.91-10.53q0-6-6-9.43a70.55,70.55,0,0,0-14.93-6.13q-9-2.65-19.33-5.81a78.66,78.66,0,0,1-19.32-8.8,48.34,48.34,0,0,1-14.93-14.93q-6-9.26-6-24.35a48.14,48.14,0,0,1,5-22.16,50.53,50.53,0,0,1,13.67-16.81A60.67,60.67,0,0,1,607,517a88.88,88.88,0,0,1,25.77-3.61,96,96,0,0,1,28.76,4.08,76.06,76.06,0,0,1,23.09,11.63,3.61,3.61,0,0,1,1.73,4.4q-.78,2.84-5.5,11l-2.82,4.4q-4.41,7.23-6.6,9a3.78,3.78,0,0,1-4.72.15,75.6,75.6,0,0,0-15.24-7.38,51,51,0,0,0-16.81-2.67q-14.15,0-20.43,5.34a11.57,11.57,0,0,0-4.4,9.11q0,6,6,9.27a82.22,82.22,0,0,0,14.93,6.13l19.33,6.13a87.75,87.75,0,0,1,19.32,8.8,47.88,47.88,0,0,1,14.93,14.46q6,9,6,23.09a52.45,52.45,0,0,1-4.24,20.9,51.62,51.62,0,0,1-11.79,17.13q-17.91,17.28-51.85,17.28A100.63,100.63,0,0,1,589,680.24q-15.24-5.34-25-13.51a4.39,4.39,0,0,1-1.42-4.4q.48-2.83,4.25-9.74Z" transform="translate(-11.83 -10.29)"/><path class="cls-5" d="M508.93,452a27.33,27.33,0,1,1-8,19.34A26.85,26.85,0,0,1,508.93,452Z" transform="translate(-11.83 -10.29)"/><path class="cls-4" d="M183.54,250.2q4.49,0,7.36.18a18.39,18.39,0,0,1,4.49.72,4.6,4.6,0,0,1,3.41,3.23l11.5,53q2,8.63,4,19.4T218,348.27q.54-4.12,1.53-9.52t2.07-10.95q1.08-5.57,2.15-11t2-9.52l11.67-53a4.3,4.3,0,0,1,.81-2.07A4.14,4.14,0,0,1,240.3,251a18.76,18.76,0,0,1,4.13-.63q2.7-.18,7.36-.18h1.62q4.48,0,7.28.27a26.92,26.92,0,0,1,4.4.72,3.74,3.74,0,0,1,2.15,1.25,7.89,7.89,0,0,1,.9,1.89l12,53.17q1.79,7.54,3.77,18t3.95,22.81q.72-4.49,1.7-10l2-11.14q1-5.56,1.89-10.69c.59-3.41,1.19-6.38,1.79-8.89l11-53.17a3.55,3.55,0,0,1,3-3.32,22.62,22.62,0,0,1,4.4-.63c1.86-.12,4.34-.18,7.46-.18h1.08a67.21,67.21,0,0,1,7.9.36,20.3,20.3,0,0,1,4.31.9c1,.36,1.5.84,1.62,1.43a5.48,5.48,0,0,1,0,2L303.35,375.58a4.52,4.52,0,0,1-1.08,1.79,5.31,5.31,0,0,1-2.34,1.17,26.79,26.79,0,0,1-4.49.72c-1.91.18-4.37.27-7.36.27h-2.16c-3.11,0-5.69-.06-7.72-.18a27.3,27.3,0,0,1-4.85-.63,5.57,5.57,0,0,1-2.61-1.26,3.37,3.37,0,0,1-1-1.88l-9.16-37.19q-2.52-9.69-4.67-22.18t-3.6-25.42q-.9,6.3-2,12.85t-2.25,12.84q-1.17,6.28-2.33,11.95t-2.25,10l-8.8,37.19a5,5,0,0,1-1,1.79,4.54,4.54,0,0,1-2.15,1.17,24.8,24.8,0,0,1-4.4.72q-2.88.27-7.37.27h-3.59c-3.12,0-5.63-.06-7.55-.18a21.25,21.25,0,0,1-4.4-.63,4.49,4.49,0,0,1-2.15-1.17,5,5,0,0,1-1-2L166.83,254.87a3.31,3.31,0,0,1,0-2.16,2.87,2.87,0,0,1,1.8-1.43,18,18,0,0,1,4.4-.81q3-.27,8-.27Z" transform="translate(-11.83 -10.29)"/><path class="cls-4" d="M369.09,341.63q1.44,8.44,6.74,12.48t13.92,4a51.51,51.51,0,0,0,12.57-1.52,91.31,91.31,0,0,0,13.29-4.58,2.5,2.5,0,0,1,2.88.45q1.42,1.17,3.05,6l1.44,4.31c1.07,3.36,1.58,5.63,1.52,6.83a3.05,3.05,0,0,1-1.88,2.69,72.92,72.92,0,0,1-17.43,6.83,78.09,78.09,0,0,1-18.68,2.15,57.12,57.12,0,0,1-19.67-3.23,40.6,40.6,0,0,1-15.08-9.43,42.25,42.25,0,0,1-9.61-15.18A57.2,57.2,0,0,1,338.73,333a62.34,62.34,0,0,1,3.15-20.21A45.52,45.52,0,0,1,351,296.9a40.75,40.75,0,0,1,14.46-10.33,48.33,48.33,0,0,1,19.31-3.68,45.07,45.07,0,0,1,18.59,3.59,36.79,36.79,0,0,1,13.38,10.06,43.19,43.19,0,0,1,8.08,15.36,66.22,66.22,0,0,1,2.7,19.31q0,7-.81,8.71a3.14,3.14,0,0,1-3.14,1.71Zm29.28-18a38.27,38.27,0,0,0-1-7.17,18.24,18.24,0,0,0-2.51-5.89,12.3,12.3,0,0,0-4.32-4,12.48,12.48,0,0,0-6.19-1.46,13.37,13.37,0,0,0-10.42,4.63q-4.14,4.62-5,13.88Z" transform="translate(-11.83 -10.29)"/><path class="cls-5" d="M556.15,168.18c2.61-2.74,5.15-5.58,8-8.16,9.36-8.6,19.78-15.47,31.94-19.43,17.65-5.74,34.71-3.81,51.4,3.95,7.14,3.32,12.69,8.43,17.87,14.09,10.6,11.56,18.45,24.72,22.6,39.93,4.64,17,3.8,34-1.47,50.73-4.44,14.13-11.53,26.92-20.15,38.89-11.37,15.79-24.86,29.61-39.47,42.39-21,18.39-43.94,34.21-67.61,49-2.45,1.53-4.06,1.54-6.53,0-20.35-12.69-40.15-26.14-58.71-41.36-16.39-13.45-31.67-28-44.67-44.86-9.59-12.42-17.61-25.73-22.85-40.6a92.71,92.71,0,0,1-5.38-38,87.38,87.38,0,0,1,12.7-39A108.94,108.94,0,0,1,453,152.28a45.85,45.85,0,0,1,11.87-7.8c10.61-5,21.73-7.72,33.51-7.17a70.51,70.51,0,0,1,32.74,10.13,98.26,98.26,0,0,1,23.1,18.91c.47.51.95,1,1.44,1.53a2.38,2.38,0,0,0,.5.3" transform="translate(-11.83 -10.29)"/><path class="cls-4" d="M530.09,516.51c4.6,0,8.27.11,11,.31a45.27,45.27,0,0,1,6.12.79,4.34,4.34,0,0,1,2.68,1.41,4,4,0,0,1,.62,2.2V677.73a3.94,3.94,0,0,1-.62,2.2,4.29,4.29,0,0,1-2.68,1.41,45.27,45.27,0,0,1-6.12.79q-4.1.32-11,.31h-1.57q-7.54,0-11.79-.31a45.91,45.91,0,0,1-6.28-.79c-1.37-.31-2.2-.78-2.52-1.41a4.92,4.92,0,0,1-.47-2.2V521.22a5,5,0,0,1,.47-2.2,3.57,3.57,0,0,1,2.52-1.41,45.91,45.91,0,0,1,6.28-.79q4.24-.3,11.79-.31Z" transform="translate(-11.83 -10.29)"/></svg>